<?xml version="1.0" encoding="UTF-8" standalone="no"?>
<!-- Created with Inkscape (http://www.inkscape.org/) -->

<svg
   version="1.1"
   id="svg1"
   width="2.7530701cm"
   height="2.9692631cm"
   viewBox="0 0 104.05304 112.22412"
   sodipodi:docname="logotipo_vidafrutal.svg"
   xml:space="preserve"
   inkscape:version="1.3.2 (091e20ef0f, 2023-11-25, custom)"
   xmlns:inkscape="http://www.inkscape.org/namespaces/inkscape"
   xmlns:sodipodi="http://sodipodi.sourceforge.net/DTD/sodipodi-0.dtd"
   xmlns:xlink="http://www.w3.org/1999/xlink"
   xmlns="http://www.w3.org/2000/svg"
   xmlns:svg="http://www.w3.org/2000/svg"><defs
     id="defs1" /><sodipodi:namedview
     id="namedview1"
     pagecolor="#ffffff"
     bordercolor="#999999"
     borderopacity="1"
     inkscape:showpageshadow="0"
     inkscape:pageopacity="0"
     inkscape:pagecheckerboard="0"
     inkscape:deskcolor="#d1d1d1"
     inkscape:document-units="cm"
     inkscape:zoom="3.842338"
     inkscape:cx="770.36429"
     inkscape:cy="262.73066"
     inkscape:window-width="1276"
     inkscape:window-height="962"
     inkscape:window-x="1920"
     inkscape:window-y="85"
     inkscape:window-maximized="1"
     inkscape:current-layer="layer-Pr12"
     showguides="true"
     showgrid="true"><inkscape:page
       x="4.8309867e-05"
       y="1.5275862e-05"
       width="104.05305"
       height="112.22411"
       id="page655"
       margin="0"
       bleed="0"
       inkscape:label="logotipo_vidafrutal"
       inkscape:export-filename="logotipo_vidafrutal.png"
       inkscape:export-xdpi="300"
       inkscape:export-ydpi="300" /></sodipodi:namedview><g
     id="layer-Pr12"
     inkscape:groupmode="layer"
     inkscape:label="Capa 1"
     transform="translate(-728.24407,-202.21234)"><path
       id="path656"
       style="opacity:1;fill:#ffffff;stroke-width:2.23638;stroke-linejoin:round;paint-order:stroke markers fill"
       d="m 832.29716,258.3244 a 52.026527,56.112053 0 0 1 -52.02653,56.11205 52.026527,56.112053 0 0 1 -52.02653,-56.11205 52.026527,56.112053 0 0 1 52.02653,-56.11205 52.026527,56.112053 0 0 1 52.02653,56.11205 z" /><text
       xml:space="preserve"
       style="font-style:normal;font-variant:normal;font-weight:normal;font-stretch:normal;font-size:22.1638px;line-height:1.35;font-family:'Hobo Std';-inkscape-font-specification:'Hobo Std, Normal';font-variant-ligatures:normal;font-variant-caps:normal;font-variant-numeric:normal;font-variant-east-asian:normal;text-align:center;text-decoration-color:#000000;letter-spacing:0px;text-anchor:middle;white-space:pre;fill:#79c04a;fill-opacity:1;stroke-width:7.63843;-inkscape-stroke:none;stop-color:#000000"
       id="text116"
       transform="translate(-618.98295,-257.6606)"><textPath
         xlink:href="#path117"
         startOffset="50%"
         id="textPath117"><tspan
           id="tspan116"
           style="font-style:normal;font-variant:normal;font-weight:normal;font-stretch:normal;font-size:22.1638px;font-family:'Hobo Std';-inkscape-font-specification:'Hobo Std, Normal';font-variant-ligatures:normal;font-variant-caps:normal;font-variant-numeric:normal;font-variant-east-asian:normal;fill:#79c04a;fill-opacity:1">Vida Frutal</tspan></textPath></text><circle
       style="fill:#8d0052;fill-opacity:0.0053614;stroke:none;stroke-width:2.14124;stroke-linecap:round;stroke-linejoin:round;stroke-miterlimit:0;stroke-dasharray:none;stroke-opacity:1;paint-order:markers fill stroke"
       id="circle117"
       cx="-1098.1731"
       cy="-19.226572"
       r="68.730278"
       transform="matrix(-0.01033274,-0.99994662,-0.99994662,0.01033274,0,0)"
       sodipodi:insensitive="true" /><circle
       style="fill:#00aeef;fill-opacity:0.00483512;stroke:none;stroke-width:1.88976;stroke-linecap:round;stroke-linejoin:round;stroke-miterlimit:0;stroke-dasharray:none;stroke-opacity:1;paint-order:markers fill stroke"
       id="path117"
       cx="1098.2845"
       cy="11.180851"
       r="60.658279"
       transform="rotate(87.82168)"
       sodipodi:insensitive="true" /><text
       xml:space="preserve"
       style="font-style:italic;font-variant:normal;font-weight:normal;font-stretch:condensed;font-size:8.537px;line-height:1.35;font-family:Arial;-inkscape-font-specification:'Arial, Italic Condensed';font-variant-ligatures:normal;font-variant-caps:normal;font-variant-numeric:normal;font-variant-east-asian:normal;text-align:center;text-decoration-color:#000000;letter-spacing:0px;text-anchor:middle;white-space:pre;fill:#019d78;fill-opacity:1;stroke-width:7.63843;-inkscape-stroke:none;stop-color:#000000"
       id="text117"
       transform="translate(-618.98295,-257.6606)"><textPath
         xlink:href="#circle117"
         startOffset="50%"
         id="textPath118"><tspan
           id="tspan117"
           style="font-style:italic;font-variant:normal;font-weight:normal;font-stretch:condensed;font-size:8.537px;font-family:Arial;-inkscape-font-specification:'Arial, Italic Condensed';font-variant-ligatures:normal;font-variant-caps:normal;font-variant-numeric:normal;font-variant-east-asian:normal;fill:#019d78;fill-opacity:1">Disfruta de tu vida por más tiempo</tspan></textPath></text><g
       id="g655"
       transform="matrix(0.57297808,0,0,0.57297808,556.59488,-71.95608)"><path
         id="path518"
         style="fill:#ffffff;stroke:none;stroke-width:1.82365;stroke-linecap:round;stroke-linejoin:round;stroke-miterlimit:0;stroke-opacity:1;paint-order:markers fill stroke"
         d="m 454.92896,578.57375 a 65.136823,65.136823 0 0 1 -65.13682,65.13682 65.136823,65.136823 0 0 1 -65.13682,-65.13682 65.136823,65.136823 0 0 1 65.13682,-65.13682 65.136823,65.136823 0 0 1 65.13682,65.13682 z" /><path
         id="path519"
         style="fill:#218942;fill-opacity:1;stroke:none;stroke-width:0.594043;stroke-linecap:round;stroke-linejoin:round;stroke-miterlimit:0;stroke-dasharray:none;stroke-opacity:1;paint-order:markers fill stroke"
         d="m 400.06023,541.59563 c -0.29059,0.0674 -0.58183,0.12193 -0.86877,0.1741 -1.86938,3.77947 -4.81216,6.44611 -7.53052,9.24901 -2.11119,2.1769 -4.08589,4.45683 -5.22043,7.40232 0.22067,-5.79118 1.91469,-11.11603 5.55737,-15.87611 a 0.50284565,0.50284565 0 0 0 -0.0935,-0.70506 0.50284565,0.50284565 0 0 0 -0.70506,0.0936 c -4.2403,5.54101 -5.92995,11.86187 -5.77652,18.68771 -0.62337,-1.00508 -1.79213,-1.89189 -3.16586,-2.73451 -0.0609,1.32384 -0.6813,2.67075 -0.45388,4.13251 0.1569,1.00828 0.9382,1.67466 1.74794,2.33348 0.53464,-1.09299 1.31897,-1.98836 1.73494,-2.89736 l 0.47294,-1.03248 0.67561,0.91209 c 0.0462,0.0624 0.0914,0.12537 0.13686,0.18796 a 0.50284565,0.50284565 0 0 0 0.0901,-0.13686 c 0.6939,-4.09966 3.01945,-6.8808 5.72195,-9.66737 2.70249,-2.78662 5.77721,-5.55011 7.74706,-9.57556 a 0.50284565,0.50284565 0 0 0 -0.0702,-0.54742 z m -20.86441,2.65222 c 0,0 0.88711,3.01003 1.01343,6.46166 0.5556,0.0223 1.07442,0.12563 1.54612,0.31875 0.009,-0.1634 0.028,-0.35 0.0329,-0.50584 0.12484,-3.9854 -2.1421,-4.60681 -2.59246,-6.27457 z m -10.56992,2.66089 c -0.15477,0.10612 -0.32351,0.20758 -0.50151,0.30663 a 0.50284565,0.50284565 0 0 0 -0.0667,0.19056 c 0.36094,6.36776 3.99923,13.1183 9.37547,18.26068 -2.5265,2.25797 -3.82509,4.60375 -0.56821,7.27673 0.092,-0.11557 0.19677,-0.22279 0.29537,-0.33521 l -0.32049,-0.30922 0.8142,-0.25119 c 0.76185,-0.82258 1.50706,-1.64228 1.52101,-2.73712 0.0118,-0.92798 -0.28603,-1.76775 -0.58207,-2.58552 0.5233,0.45728 1.0554,0.90521 1.60588,1.33044 0.24931,0.36894 0.5348,0.70547 0.87571,0.9883 2.24798,1.86522 7.87474,9.78949 6.74489,12.34819 -0.38754,-0.39239 -0.77389,-0.72769 -1.16067,-1.08359 -0.2015,0.39299 -0.39598,0.85156 -0.63837,1.29753 0.208,0.16596 0.4118,0.32357 0.62192,0.49199 -1.00326,0.40429 -1.55686,0.85816 -1.92205,1.12169 -0.041,-0.0203 -0.0778,-0.0386 -0.11866,-0.0589 -0.0748,0.04 -0.15196,0.0772 -0.233,0.11087 -0.84613,0.35177 -1.72032,0.37469 -2.51451,0.40364 0.0776,0.0567 0.15701,0.10649 0.23387,0.16631 0.0459,4.4e-4 0.0923,8.8e-4 0.13686,0.002 l 0.67994,0.0164 -0.026,0.66696 c 0.82578,0.79285 1.60136,1.77773 2.30489,3.00909 l -1.85708,8.30228 c 0.0607,3.87699 0.25899,9.22559 0.25899,12.19573 0,7.83714 1.64896,12.68684 4.09441,17.17624 3.62694,5.09471 8.85757,7.18239 14.6011,7.50194 -6.07388,-3.43702 -11.971,-6.97667 -13.67516,-12.93112 -2.28604,-4.68384 -4.12472,-11.05278 -4.12472,-18.42959 0,-2.20861 1.03487,-6.97515 3.3954,-11.27586 0.71389,-1.3006 1.56043,-2.55544 2.53962,-3.67171 -0.0174,-0.0723 -0.0347,-0.14433 -0.0537,-0.21395 l -0.1793,-0.65656 0.65916,-0.16977 c 0.26074,-0.067 0.51334,-0.12238 0.7579,-0.16544 0.60481,-0.55449 1.26106,-1.0381 1.9515,-1.46556 -0.0498,-0.63873 -0.057,-1.26616 -0.1282,-1.8155 l -0.0875,-0.67475 0.67648,-0.0771 c 0.40009,-0.0458 0.77699,-0.067 1.13209,-0.065 1.68229,0.01 2.80376,0.53475 3.53312,1.39194 0.85553,0.22281 1.72596,0.41323 2.61065,0.56734 0.83219,0.5467 1.76538,1.10394 2.72672,1.67258 -0.005,-0.0954 -0.009,-0.19223 -0.0104,-0.2919 l -0.0121,-0.67995 0.35166,-0.002 c -0.19516,-0.11546 -0.41207,-0.23956 -0.60199,-0.3534 5.72662,0.6258 11.78267,0.11053 17.03419,-0.50585 a 0.50284565,0.50284565 0 0 0 0.44088,-0.55781 0.50284565,0.50284565 0 0 0 -0.55868,-0.44088 c -1.03754,0.12177 -2.10665,0.23777 -3.19532,0.34213 0.15296,-0.35137 0.21559,-0.72037 0.21828,-1.07145 0.002,-0.3067 -0.0708,-0.57556 -0.1178,-0.86444 0.80268,0.18296 1.61685,-4.4e-4 2.34127,-0.26419 a 0.50284565,0.50284565 0 0 0 0.30056,-0.64443 0.50284565,0.50284565 0 0 0 -0.64444,-0.30056 c -0.90118,0.32803 -1.61595,0.46523 -2.3378,-0.003 a 0.50289594,0.50289594 0 0 0 -0.76829,0.51104 c 0.10383,0.57296 0.22428,1.11031 0.22087,1.55738 -0.004,0.44693 -0.0948,0.78046 -0.44002,1.12083 a 0.50284565,0.50284565 0 0 0 -0.058,0.0745 c -4.78553,0.40509 -9.89808,0.51978 -14.59764,-0.27545 a 0.50284565,0.50284565 0 0 0 -0.097,-0.0173 c -1.66321,-0.28622 -3.27281,-0.68849 -4.79774,-1.23169 0.0876,-0.0675 0.1693,-0.13643 0.25899,-0.20355 4.65397,-3.48319 11.42207,-5.48599 17.69594,-6.87569 -0.009,-0.0205 -0.0184,-0.0421 -0.0277,-0.0624 l -0.28497,-0.61759 0.62191,-0.2763 c 1.00387,-0.44539 1.90635,-0.66692 2.71979,-0.66956 0.82661,-0.003 1.51387,0.21175 2.09181,0.58727 0.65978,-0.12589 1.39597,-0.28043 2.01905,-0.39757 2.34513,2.81329 4.70573,1.3506 7.06885,-1.08099 -0.0632,-0.0538 -0.12693,-0.10649 -0.18969,-0.15938 -1.17929,-0.38557 -2.29774,-1.1659 -3.67085,-1.25162 -0.0444,-0.003 -0.0889,-0.004 -0.13252,-0.004 -0.23472,-0.001 -0.45691,0.0396 -0.67302,0.10135 -0.15756,0.0783 -0.32039,0.14511 -0.48592,0.20528 -0.61393,0.29701 -1.18102,0.75935 -1.75834,1.21091 -3.86394,0.23774 -7.96947,1.254 -11.92462,1.87094 2.85267,-1.52089 6.70348,-3.54239 9.87266,-6.01905 0.40221,-1.62743 1.66712,-2.50843 3.32351,-2.97444 0.0847,-0.14071 0.15878,-0.28666 0.21914,-0.43828 1.21648,-1.53838 2.03824,-3.20236 2.1715,-4.99696 -0.54175,1.20742 -1.20131,2.28257 -1.93157,3.26634 -0.0641,-1.13719 -0.46919,-2.42743 -1.01776,-3.78258 -0.91554,1.1275 -2.33864,1.91169 -3.08964,3.34863 -0.6938,1.32739 -0.0121,2.83377 0.28844,4.32048 -2.28408,1.80542 -4.75872,3.13189 -6.97444,4.30575 -0.79163,0.727 -1.82398,1.20193 -2.57514,1.73235 l -0.55521,0.39237 -0.20962,-0.30576 c -1.2554,0.67743 -2.55799,1.2163 -3.86746,1.73235 -0.68614,0.49916 -1.45315,0.88218 -2.04504,1.30013 l -0.55522,0.39238 -0.33348,-0.4868 c -1.26152,0.53411 -2.50767,1.11086 -3.68643,1.8796 -0.10275,0.067 -0.20314,0.13972 -0.30577,0.20702 0.58235,-1.11184 1.42542,-2.25023 3.13556,-3.59982 -0.15419,-0.35724 -0.26781,-0.69996 -0.33781,-1.02728 -2.88624,2.18759 -3.65305,4.02354 -4.42875,5.7332 -2.04192,1.38062 -4.0662,2.80475 -6.0433,4.34041 1.24539,-8.80594 10.79817,-15.56904 16.15502,-18.14636 0.25656,-0.12344 0.84935,-0.40215 1.22563,-0.57427 -0.34292,-0.18154 -0.69599,-0.42211 -1.05933,-0.72152 -0.53545,0.24125 -1.05945,0.48036 -1.59202,0.72325 -0.6602,0.92467 -1.66973,1.60289 -2.3586,2.2893 l -0.48159,0.48073 -0.47293,-0.48939 c -0.15227,-0.15744 -0.29022,-0.3128 -0.42183,-0.46687 -1.99751,1.07504 -3.88128,2.3256 -5.64485,3.78691 l -0.40364,0.40278 -0.0407,-0.0415 c -1.924,1.65507 -3.69309,3.5853 -5.27933,5.87266 0.55466,-7.2005 3.81553,-14.89613 6.05629,-21.32261 -0.016,-0.14783 -0.0243,-0.29281 -0.0234,-0.43482 -2.93775,5.88192 -6.71988,12.42588 -8.37937,21.92027 0.17761,-0.298 -1.46297,-2.62107 -3.2369,-5.1087 l -0.24599,0.1178 -0.28411,-0.61845 c -0.13751,-0.29924 -0.31167,-0.61224 -0.49112,-0.93547 -0.93021,-1.30998 -1.81472,-2.5734 -2.39844,-3.5132 -1.16154,-1.87019 -0.85627,-5.65651 -0.4504,-9.33303 -0.53206,0.044 -1.06885,0.0232 -1.58857,-0.13425 -0.61867,3.45092 -1.03098,7.05889 -0.33088,9.74446 -5.85736,-5.10908 -9.89216,-12.20769 -10.25897,-18.67905 a 0.50284565,0.50284565 0 0 0 -0.43655,-0.44089 z m 44.36198,2.62018 c -1.39612,0.57964 -3.08823,0.59313 -4.48678,1.53746 -0.53558,0.36164 -0.86755,0.87023 -1.10784,1.44737 0.11675,-0.87958 0.14416,-1.75786 0.039,-2.61064 -0.33299,0.0822 -0.66867,0.14653 -0.99783,0.20614 0.21414,2.13578 -0.51958,4.59921 -1.33044,6.83672 l 0.64357,-0.41836 0.0823,1.13295 c 0.006,0.0833 0.0146,0.1672 0.0251,0.25206 0.30738,-0.79711 0.61824,-1.64212 0.88524,-2.51537 4.61635,1.35761 5.79382,-1.78237 6.24771,-5.86833 z m -38.23033,1.09051 c -2.93825,2.43398 -4.76127,4.94847 -1.22997,7.84667 0.93268,-1.17162 2.29115,-2.14608 2.31009,-3.63273 0.0115,-0.90484 -0.27009,-1.72442 -0.55869,-2.52317 l -0.42009,-0.37678 0.25379,-0.0883 c -0.1443,-0.40836 -0.27719,-0.81505 -0.35513,-1.22564 z m -15.10782,0.62365 c 1.52236,2.73075 3.32885,4.36536 5.34863,7.84581 l 0.0719,-0.0251 c 0.36904,-0.12832 0.73827,-0.24795 1.10437,-0.35514 -1.90221,-3.01267 -4.03558,-5.45369 -6.52489,-7.46555 z m 61.9358,0.5171 c -1.21389,3.28711 -3.94948,5.74149 -7.16933,7.74014 0.007,4.4e-4 0.0145,10e-4 0.0217,0.002 l 1.13295,0.0754 -0.45561,0.70939 c 3.37353,-2.17721 6.46258,-5.06413 6.47033,-8.52662 z m -67.44466,7.49674 c 1.50327,2.63069 3.96536,5.1966 6.93892,7.64139 0.27421,-0.27655 0.56357,-0.52008 0.87137,-0.72066 -2.72911,-2.35885 -4.91081,-4.65359 -7.81029,-6.92073 z m 12.59244,3.09831 c 1.8179,3.62354 3.57889,7.46131 6.33,10.25204 0,0 -3.57744,-1.24838 -6.64096,-3.07233 -0.21171,0.29038 -0.43966,0.57218 -0.69467,0.82633 1.45182,0.99118 2.95364,1.95878 4.48938,2.88783 2.17268,1.31449 4.63871,1.26985 6.96491,2.42876 1.94807,0.97045 3.62948,2.03528 5.22823,3.17366 0.46884,-0.28462 1.00972,-0.44617 1.64053,-0.44089 0.1376,10e-4 0.27791,0.011 0.4201,0.0286 -1.01748,-0.79772 -2.02431,-1.50756 -3.01429,-2.17929 -0.43158,-0.0435 -0.85818,-0.16517 -1.25942,-0.42096 -0.58708,-0.37431 -1.02879,-0.87132 -1.41706,-1.36683 -2.08678,-1.39671 -4.06088,-2.8048 -5.81983,-4.69726 -1.52088,-1.63652 -2.72898,-3.75954 -3.88132,-5.91338 -0.33309,-0.0695 -0.66076,-0.18768 -0.97791,-0.37418 -0.53345,-0.3137 -0.97444,-0.71061 -1.36769,-1.13209 z m -6.90168,12.80378 c -1.95826,0.0359 -3.3149,1.95384 -4.50584,4.39238 1.43255,-0.0716 2.94769,0.45711 4.49891,0.0606 0.69793,-0.1784 1.2086,-0.62971 1.65526,-1.17974 -0.0468,8.9e-4 -0.0942,0.001 -0.14032,0.004 l -1.13469,0.0563 0.49805,-1.02035 c 0.30927,-0.63327 0.6381,-1.24897 0.99524,-1.81723 -0.67708,-0.33697 -1.30062,-0.50584 -1.86661,-0.49546 z m 8.07881,2.00087 c -0.31396,0.37122 -0.66785,0.70768 -1.08878,0.95972 1.97048,0.6796 3.95186,1.5576 5.97487,3.20398 -2.12668,0.11009 -3.96339,0.72342 -5.72975,1.79038 -1.07356,-3.29928 -3.98839,-2.94898 -7.32176,-1.76959 1.07209,0.95279 1.78311,2.392 3.16759,3.19618 0.42492,0.24679 0.88123,0.31713 1.34864,0.32828 0.41126,-0.44791 0.93987,-0.8892 1.61108,-1.32005 l 0.57254,-0.36813 0.35947,0.57861 c 0.19935,0.321 0.44535,0.65129 0.69726,0.9961 2.49278,-1.38612 5.14955,-2.47579 7.73321,-2.73538 0.41489,-0.18899 0.89779,-0.29623 1.4621,-0.30056 0.56351,-0.004 1.18627,0.098 1.86921,0.30663 l 0.65136,0.19835 -0.0424,0.13252 c 0.27285,0.0819 0.54802,0.15348 0.81507,0.26332 0.15783,-0.46837 0.33207,-0.92724 0.52923,-1.35989 -1.03383,-0.39346 -2.06858,-0.66695 -3.14768,-0.74318 -0.0261,0.0651 -0.0495,0.12928 -0.078,0.19575 l -0.26765,0.62538 -0.62105,-0.27717 c -0.32824,-0.14649 -0.71758,-0.27583 -1.11736,-0.42356 -0.13629,0.0252 -0.27126,0.0444 -0.40971,0.0771 -0.17272,-0.17104 -0.34476,-0.31928 -0.5171,-0.47467 -0.44399,-0.23175 -0.85601,-0.53092 -1.16674,-0.95539 -1.77519,-1.27318 -3.53272,-1.82908 -5.28366,-2.12472 z m -4.40796,8.78214 c -1.23778,1.21133 -2.50945,2.65763 -3.88826,4.36032 1.00893,-0.84234 2.19867,-1.78695 3.49675,-2.73105 6e-5,-0.54771 0.12143,-1.09185 0.39151,-1.62927 z m 27.17275,1.71589 c -0.71365,0.89673 -1.35383,1.87595 -1.91684,2.90169 -2.26625,4.12894 -3.27154,8.91765 -3.27154,10.79166 0,7.53827 1.97177,14.00424 4.32914,18.59936 9.51872,12.49603 16.68366,9.1171 24.82455,11.2005 -15.6379,-10.15422 -22.06271,-12.63535 -23.12252,-29.85876 -0.29773,-4.83861 -0.24358,-8.38434 0.11693,-11.11995 -0.55508,-0.72994 -0.78396,-1.64044 -0.95972,-2.5145 z m 20.79165,0.47033 -0.90602,0.19316 c -0.15508,0.0331 -0.30992,0.0638 -0.46426,0.0927 1.54919,1.00541 3.07758,2.0844 4.47811,3.28713 a 0.50284565,0.50284565 0 0 0 0.7094,-0.0537 0.50284565,0.50284565 0 0 0 -0.0537,-0.70853 c -1.19282,-1.02433 -2.47068,-1.93868 -3.76353,-2.81074 z m -29.06101,11.82588 -1.94196,8.68167 c 0.16913,0.83005 0.28528,1.71663 0.36812,2.62797 0.23513,2.5867 0.1793,5.36386 0.1793,7.39626 0,2.57093 -0.58683,4.57221 -1.7081,6.18622 0.016,-0.0101 0.0308,-0.0185 0.0468,-0.0286 -0.035,0.0416 -0.0744,0.0809 -0.11,0.12213 -0.72358,1.01332 -1.66097,1.87305 -2.80467,2.62104 -0.23737,0.15524 -0.48634,0.3055 -0.74058,0.45301 -3.18207,2.20481 -7.18701,3.99295 -11.09483,5.83022 6.76388,0.0221 12.39974,-2.69928 18.24077,-4.91987 6.44836,4.30309 12.78537,8.63733 18.99087,8.97963 -12.60369,-6.27509 -15.37918,-10.91141 -16.53441,-15.27672 -1.66096,-3.85633 -2.71718,-8.33439 -2.71718,-14.5933 0,-1.98005 -0.0948,-5.07365 -0.1741,-8.07968 z m -2.57427,11.41704 c -3.27433,11.6519 -10.24797,14.90969 -25.65435,19.0697 6.00499,0.43558 11.87048,1.1366 20.20525,-2.85838 0.53985,-0.27698 1.04383,-0.56253 1.50281,-0.86271 2.77749,-1.81645 4.12039,-4.04856 4.12039,-8.05975 0,-2.04595 0.0519,-4.78621 -0.1741,-7.28886 z" /><path
         d="m 314.81329,605.33349 c 0.86736,2.32484 2.8754,2.61145 4.86648,1.86861 4.31593,-1.61021 4.9324,-4.84265 4.38707,-6.30431 l -0.72996,-1.95655 c -0.073,-0.19565 -0.0891,-0.87142 -5.77462,1.24976 -4.31593,1.6102 -3.96844,1.8739 -3.86109,2.16162 z m 5.32933,-4.05985 c 0.72507,-0.27052 2.26986,-0.6633 2.57044,0.14234 0.2791,0.74809 -0.41427,2.685 -3.25703,3.74559 -2.07164,0.7729 -3.09228,-0.17054 -3.32415,-0.79203 -0.24046,-0.64451 -0.22462,-1.51575 2.36493,-2.48188 z m -2.91287,9.91795 c 0.1149,0.25812 0.19742,0.62477 0.55654,0.46491 0.10101,-0.045 1.64567,-1.25691 4.47373,-2.51574 1.22325,-0.54449 1.69843,-0.59465 2.11366,-0.77948 0.13467,-0.06 0.16334,-0.0862 -0.0465,-0.5575 l -0.27475,-0.61723 c -0.16485,-0.37035 0.12557,-0.71475 -3.71251,0.99366 -3.95032,1.75836 -3.69467,1.69835 -3.44989,2.24826 z m 7.89289,-3.95701 c 0.19981,0.4489 0.64276,0.74924 1.12533,0.53444 0.48256,-0.2148 0.58952,-0.75991 0.3897,-1.20881 -0.19981,-0.4489 -0.67642,-0.73425 -1.15899,-0.51945 -0.48257,0.2148 -0.55585,0.74493 -0.35604,1.19382 z m -5.9709,8.38021 c 0.67355,1.3112 2.08832,2.07593 3.50879,1.34626 2.21812,-1.13942 0.5573,-4.31879 1.68275,-4.89692 0.3278,-0.16839 0.71652,0.21195 0.89052,0.55068 0.51638,1.00526 -0.29129,1.50301 -0.14536,1.78711 0.12909,0.25131 1.32848,0.40856 1.53609,0.30191 0.21853,-0.11226 0.65074,-1.28716 -0.0509,-2.653 -0.60619,-1.18009 -1.87742,-1.88045 -3.21048,-1.19568 -2.17441,1.11697 -0.3639,3.91563 -1.48936,4.49376 -0.55726,0.28626 -1.05614,-0.12035 -1.28626,-0.56835 -0.79704,-1.55159 0.71257,-2.67231 0.68451,-2.72694 -0.0449,-0.0874 -0.83521,-0.0129 -1.34877,0.25093 -1.27842,0.6567 -1.36653,2.15201 -0.77156,3.31024 z m 3.40819,5.72773 c 0.11351,0.18975 0.15963,0.36256 0.39155,0.22383 0.13704,-0.082 2.70784,-2.14946 4.09936,-2.98187 0.41114,-0.24594 1.11537,-0.69584 1.4622,-0.11604 0.11351,0.18975 0.14476,0.45734 0.19521,0.54168 0.13243,0.22138 0.53302,-0.0183 0.6806,-0.10654 0.35842,-0.21441 0.63675,-0.39522 0.39711,-0.79581 -0.082,-0.13704 -0.21036,-0.23201 -0.29234,-0.36906 -0.0946,-0.15813 -0.0311,-0.33922 0.11644,-0.4275 0.24246,-0.14504 0.79449,-0.2033 0.97106,0.0919 0.0694,0.11596 -2.8e-4,0.21489 0.088,0.36247 0.1072,0.17921 1.21597,-0.31229 1.3741,-0.40688 0.30571,-0.18288 -0.0686,-0.68898 -0.31455,-1.10011 -0.32792,-0.54818 -1.13003,-0.95583 -1.90344,-0.76514 -0.56267,0.13618 -1.26897,0.5587 -1.55274,0.0843 -0.23964,-0.40059 -0.47325,-0.57575 -1.27443,-0.0965 -0.18975,0.11351 -0.3331,0.18494 -0.25112,0.32199 0.0694,0.11596 0.25893,0.1457 0.37244,0.33545 0.28378,0.47439 -0.37387,0.73896 -0.69012,0.92814 -0.52709,0.31531 -1.0731,0.59899 -1.60019,0.9143 -3.46826,2.07471 -3.0385,2.07529 -2.94391,2.23341 z m 2.33012,3.62655 c 0.0765,0.11137 0.22956,0.33411 0.3985,0.23294 0.18225,-0.12522 0.7962,-1.05379 2.81099,-2.43809 0.60747,-0.41738 2.01603,-1.29574 2.60036,-0.44527 0.47999,0.69859 -0.29575,1.02292 -0.21227,1.14442 0.20869,0.30374 1.03043,0.58867 1.73915,0.10173 0.54673,-0.37564 0.70004,-1.10695 0.34527,-1.6233 -0.18782,-0.27337 -0.51677,-0.40506 -0.81472,-0.51333 -0.30807,-0.10131 -0.58833,-0.16213 -0.69267,-0.314 -0.13913,-0.20249 0.0393,-0.35491 0.17728,-0.47951 0.18541,-0.14229 0.01,-0.28975 -0.0948,-0.44162 l -0.57738,-0.84034 c -0.2049,-0.27653 -0.77698,0.23576 -3.58148,2.16266 -3.35124,2.30254 -2.91216,2.26913 -2.65478,2.64375 z m 11.15103,1.75518 c -0.0852,-0.10487 -0.2538,-0.33192 -0.37775,-0.23123 -0.15256,0.12392 -1.34983,1.65038 -2.49399,2.5798 -2.04996,1.6652 -2.73394,1.01801 -2.98953,0.70337 -0.66608,-0.81999 0.79094,-1.98771 1.32489,-2.42144 1.80206,-1.46383 3.1118,-1.79974 3.25482,-1.91592 0.1907,-0.1549 -0.0661,-0.37361 -0.16678,-0.49757 l -0.71255,-0.87719 c -0.3253,-0.40045 -3.23993,1.85634 -3.40201,1.988 -2.72693,2.21511 -2.62636,3.35203 -1.98351,4.14341 0.25558,0.31465 0.54814,0.441 0.79243,0.52743 0.25383,0.0787 0.6322,0.13533 0.7019,0.22114 0.44148,0.54349 -0.71208,0.21444 0.10116,1.21558 0.55765,0.6865 0.59693,1.06606 4.09617,-1.77639 0.90579,-0.73579 2.90034,-2.3718 2.57504,-2.77226 z m 4.96146,2.80746 c -0.16904,-0.17828 -1.36527,-0.93998 -1.74626,-0.66337 -0.35425,0.25126 -0.81639,0.63868 -1.07841,0.36235 -0.0676,-0.0713 -0.0911,-0.16752 -0.12494,-0.20318 -0.32118,-0.33873 -0.58735,-0.45876 -1.26481,0.1836 -0.16045,0.15214 -0.28479,0.2531 -0.17491,0.36899 0.093,0.0981 0.28447,0.0858 0.4366,0.24621 0.38035,0.40113 -0.16816,0.76887 -0.43557,1.02244 -0.16937,0.16058 -0.64795,0.51281 -1.74436,1.55242 -0.49027,0.46487 -2.39355,2.43885 -2.07237,2.77758 0.1944,0.20502 1.67403,0.76571 1.80774,0.63893 0.15154,-0.14369 0.0704,-1.01476 2.44154,-3.26304 0.79333,-0.75225 1.36382,-1.29319 1.82869,-0.80292 0.15215,0.16045 0.24096,0.4148 0.30858,0.48611 0.1775,0.18719 0.51622,-0.13399 0.64102,-0.25232 0.30307,-0.28737 0.5353,-0.52449 0.21412,-0.86323 -0.10988,-0.11588 -0.25588,-0.18058 -0.36576,-0.29646 -0.12678,-0.13371 -0.0621,-0.27971 0.0984,-0.43185 0.10697,-0.10143 0.90428,-0.34959 1.14496,-0.5778 0.16936,-0.16059 0.14493,-0.22206 0.0858,-0.28446 z m -1.21243,8.82353 c -0.40404,0.44617 -0.66961,0.70284 -1.20683,0.21635 -0.48259,-0.43701 -0.65665,-1.14152 -0.1949,-1.65143 0.50298,-0.55543 1.47979,-0.49947 2.01701,-0.013 0.43706,0.39579 0.0361,0.72874 -0.25248,1.04743 z m -2.82061,-2.3388 c -0.49473,0.54633 -1.36239,1.81557 0.83202,3.80275 0.81038,0.73385 1.68278,1.49072 1.85594,1.29951 0.28034,-0.30959 0.42189,-0.61229 0.78469,-1.01293 0.28859,-0.31869 2.71106,-3.03038 2.99809,-3.73165 0.69,-1.69528 -0.56569,-2.81581 -0.85706,-3.07967 -0.8377,-0.75859 -1.98923,-1.00591 -2.5994,-0.33211 -0.35456,0.39153 -0.35745,1.03523 -0.0661,1.29909 0.20032,0.1814 0.77285,-0.72534 1.7016,0.1157 0.40064,0.3628 0.6606,1.04566 0.24007,1.51004 -0.2721,0.30048 -0.52275,0.15636 -0.82804,-0.0373 -1.17647,-0.7505 -3.0229,-0.98078 -4.06184,0.1665 z m 10.27787,8.88136 c -0.86781,-0.58064 -0.40233,-1.85066 0.069,-2.55512 1.24326,-1.85812 2.62633,-1.76041 3.06534,-1.46667 0.37775,0.25275 0.57143,0.5597 -0.63084,2.35657 -0.49184,0.73509 -1.4009,2.40298 -2.50352,1.66522 z m 1.02413,2.84314 c 0.35733,0.23909 2.60492,-3.20841 2.76203,-3.44323 0.32106,-0.47984 3.42224,-5.02636 2.96281,-5.33376 l -1.06179,-0.71044 c -0.10209,-0.0683 -0.35733,-0.23909 -0.45297,-0.0961 -0.25958,0.38795 -0.25026,0.92627 -0.80358,1.75324 -0.1093,0.16335 -0.38584,0.5104 -0.59004,0.37378 -0.14293,-0.0956 -0.21042,-0.48074 -0.42482,-0.62419 -0.89843,-0.60114 -3.30416,-0.36328 -4.86848,1.97469 -1.37989,2.06232 -1.05563,3.7425 0.0878,4.50759 z m 4.11805,2.55926 c 1.29686,0.70077 2.78226,0.48414 3.52391,-0.88837 0.0467,-0.0865 0.31796,-0.66595 0.15585,-0.75355 -0.1513,-0.0817 -0.88127,1.26914 -2.65364,0.31142 -0.54036,-0.29198 -1.16315,-1.10324 -0.88868,-1.61118 0.60733,-1.12395 3.82445,1.24277 5.07999,-1.08077 0.68909,-1.27524 0.0461,-2.48839 -1.1427,-3.13075 -1.44816,-0.78253 -3.59709,-0.2682 -5.01031,2.34714 -0.93436,1.72914 -0.99891,3.76074 0.93558,4.80606 z m 3.33161,-5.90716 c 0.41067,0.22191 0.75012,0.78233 0.46397,1.31188 -0.29782,0.55117 -2.49832,-0.0794 -2.628,-0.14945 -0.14049,-0.0759 -0.13029,-0.224 -0.0661,-0.34288 0.33871,-0.62681 1.3547,-1.29257 2.23009,-0.81955 z m 10.19369,1.20108 c -0.22982,-0.0868 -1.6384,-0.25135 -1.86085,0.1636 -0.20941,0.38049 -0.45663,0.93053 -0.81285,0.79594 -0.0919,-0.0347 -0.155,-0.11109 -0.20097,-0.12846 -0.43666,-0.16498 -0.72854,-0.15708 -1.05851,0.71625 -0.0781,0.20684 -0.14609,0.35188 0.003,0.40832 0.12641,0.0478 0.29342,-0.0467 0.50026,0.0315 0.5171,0.19538 0.18357,0.76533 0.0533,1.11007 -0.0825,0.21833 -0.35984,0.74386 -0.89387,2.15727 -0.23879,0.63202 -1.09208,3.23796 -0.65541,3.40295 0.2643,0.0999 1.84041,-0.04 1.90553,-0.21238 0.0738,-0.19535 -0.37866,-0.9441 0.77623,-4.00075 0.38641,-1.02271 0.66428,-1.75815 1.29629,-1.51935 0.20685,0.0781 0.39759,0.2684 0.48952,0.30313 0.24132,0.0912 0.4063,-0.34549 0.46709,-0.50636 0.14761,-0.3907 0.25335,-0.7053 -0.18332,-0.87029 -0.14938,-0.0564 -0.30898,-0.0511 -0.45837,-0.10753 -0.17237,-0.0651 -0.17772,-0.22473 -0.0996,-0.43157 0.0521,-0.13789 0.66168,-0.7086 0.7789,-1.01886 0.0825,-0.21834 0.0337,-0.26303 -0.0467,-0.29342 z m 4.75334,3.36876 c -0.12987,-0.0373 -0.39804,-0.12708 -0.44212,0.0264 -0.0542,0.18891 -0.16314,2.12583 -0.57,3.54266 -0.72895,2.53847 -1.66018,2.39886 -2.04981,2.28698 -1.01539,-0.29159 -0.48823,-2.08284 -0.29836,-2.74403 0.6408,-2.23149 1.52297,-3.25621 1.57383,-3.43332 0.0678,-0.23613 -0.26793,-0.26864 -0.42142,-0.31272 l -1.08623,-0.31192 c -0.49589,-0.14241 -1.59568,3.37592 -1.65332,3.57664 -0.96968,3.37676 -0.23686,4.25178 0.74311,4.5332 0.38963,0.11188 0.70187,0.0482 0.95169,-0.0207 0.25321,-0.0807 0.59596,-0.25062 0.70223,-0.2201 0.67299,0.19326 -0.46143,0.5832 0.77829,0.9392 0.85009,0.24412 1.09944,0.53299 2.34375,-3.80013 0.32209,-1.12165 1.02229,-3.60449 0.5264,-3.74688 z m 10.2681,1.94219 c -0.24349,-0.0327 -0.36197,-0.0734 -0.39956,0.20664 -0.0507,0.37742 -0.0234,0.72812 -0.0806,1.15424 -0.31871,2.37409 -1.33399,3.9358 -1.76011,3.87859 -0.28002,-0.0376 -1.01024,-1.33786 -0.60818,-4.33286 0.0719,-0.53569 0.16712,-0.78319 0.2047,-1.06321 0.0343,-0.25567 -0.32691,-0.2422 -0.49736,-0.26508 l -0.93746,-0.12585 c -0.32872,-0.0441 -0.38069,-0.0263 -0.42808,0.32675 -0.7453,5.55172 1.42726,7.92561 1.70727,7.9632 0.40177,0.0539 3.33464,-1.75851 4.02109,-6.87194 0.0932,-0.69396 0.008,-0.7054 -0.41818,-0.76261 z m 3.10383,8.13525 c 0.28193,0.0183 0.64491,0.11574 0.67038,-0.27652 0.007,-0.11033 -0.34752,-2.0414 -0.14692,-5.13046 0.0868,-1.33615 0.26333,-1.78015 0.29278,-2.2337 0.01,-0.1471 -3.2e-4,-0.18467 -0.51516,-0.21811 l -0.67421,-0.0438 c -0.40452,-0.0263 -0.57438,-0.44353 -0.84663,3.74878 -0.2802,4.31489 -0.21445,4.06065 0.3862,4.09966 z m 0.16703,-8.82767 c 0.49033,0.0318 0.9622,-0.22064 0.99643,-0.74774 0.0342,-0.52711 -0.39863,-0.87527 -0.88896,-0.90711 -0.49033,-0.0318 -0.96458,0.25741 -0.99881,0.78452 -0.0342,0.5271 0.40102,0.83849 0.89134,0.87033 z m 4.84483,7.17095 c -1.04413,0.005 -1.37022,-1.30741 -1.37454,-2.155 -0.0114,-2.23566 1.1889,-2.92971 1.7171,-2.9324 0.4545,-0.002 0.78692,0.14339 0.79796,2.30535 0.005,0.88444 0.18614,2.77528 -1.14052,2.78205 z m 2.44136,1.78103 c 0.42994,-0.002 0.3598,-4.11704 0.35836,-4.39957 -0.003,-0.57734 0.0181,-6.08077 -0.53468,-6.07794 l -1.27752,0.007 c -0.12284,4.4e-4 -0.42994,0.002 -0.42906,0.17417 0.002,0.46678 0.31174,0.90743 0.31681,1.90243 8.9e-4,0.19654 -0.0336,0.63895 -0.27926,0.6402 -0.17198,8.9e-4 -0.44366,-0.28027 -0.70162,-0.27896 -1.08098,0.006 -2.9403,1.55054 -2.92594,4.36355 0.0127,2.48133 1.22269,3.69129 2.59849,3.68427 z m 5.29732,-2.82935 c 0.0566,0.59925 0.0668,0.96845 -0.65479,1.03658 -0.64817,0.0612 -1.28553,-0.28581 -1.35019,-0.97067 -0.0704,-0.74601 0.63007,-1.42908 1.35162,-1.4972 0.58702,-0.0554 0.56214,0.46515 0.60255,0.89318 z m -3.62943,0.50307 c 0.0693,0.73378 0.42037,2.23063 3.36771,1.95235 1.08844,-0.10276 2.23572,-0.23576 2.21147,-0.49258 -0.0393,-0.41581 -0.16712,-0.72454 -0.21792,-1.26264 -0.0404,-0.42804 -0.40666,-4.04571 -0.73045,-4.73078 -0.78537,-1.65326 -2.45967,-1.48285 -2.85102,-1.44589 -1.12513,0.10622 -2.08476,0.78909 -1.99932,1.69408 0.0496,0.52587 0.52272,0.96242 0.91407,0.92547 0.26905,-0.0254 -0.0137,-1.05984 1.23373,-1.17761 0.53811,-0.0508 1.21745,0.2182 1.27634,0.84191 0.0381,0.40358 -0.23741,0.49128 -0.58629,0.58592 -1.34778,0.36168 -2.7638,1.56884 -2.61832,3.10977 z m 12.71329,-2.80003 c -0.53796,0.12715 -0.66294,-0.34821 -0.76183,-0.76663 -0.56227,-2.37898 -0.1193,-2.53416 0.5143,-2.68391 0.75314,-0.17801 1.51389,0.2102 1.69755,0.98725 0.23451,0.99224 -0.38605,2.21182 -1.45002,2.46329 z m 0.0863,3.24884 c 0.1315,-0.0311 0.3882,-0.0665 0.34299,-0.25779 -0.0311,-0.1315 -0.48426,-1.03419 -0.68204,-1.87101 -0.0509,-0.21519 -0.13758,-0.42189 -0.018,-0.45015 0.0837,-0.0198 0.29278,0.17063 0.53491,0.34061 0.24496,0.18193 0.53991,0.41515 0.7551,0.36429 0.9205,-0.21756 2.30597,-2.52674 1.86519,-4.39167 -0.29951,-1.2672 -1.26564,-2.3642 -3.94349,-1.73129 -2.03229,0.48033 -2.26595,0.34622 -1.66412,2.89256 l 0.8307,3.51468 c 0.48598,2.0562 0.62792,1.90905 0.99852,1.82146 z m 7.95048,-2.01174 c 1.34085,-0.44468 2.53601,-2.14818 1.62731,-4.88818 -0.62255,-1.87719 -2.1893,-3.59655 -4.21806,-2.92372 -2.02876,0.67282 -2.25759,2.98766 -1.63504,4.86485 0.9087,2.74 2.88494,3.39174 4.22579,2.94705 z m -0.64575,-1.94714 c -1.17762,0.39054 -1.92158,-0.83811 -2.23092,-1.77088 -0.30548,-0.9211 -0.41209,-2.33524 0.7422,-2.71805 1.1543,-0.38282 1.91385,0.81478 2.21932,1.73589 0.30935,0.93276 0.44702,2.36249 -0.7306,2.75304 z m 6.30421,-0.36602 c 0.12442,-0.0527 0.37327,-0.15811 0.30792,-0.34388 -0.0862,-0.2036 -0.87327,-0.99084 -1.82668,-3.24178 -0.28746,-0.67867 -0.86638,-2.23443 0.0838,-2.63687 0.78047,-0.33058 0.94312,0.49434 1.07885,0.43685 0.33934,-0.14373 0.78285,-0.89189 0.44748,-1.68368 -0.25872,-0.6108 -0.94459,-0.90727 -1.52146,-0.66293 -0.30541,0.12936 -0.50022,0.42532 -0.66589,0.6956 -0.16088,0.28159 -0.27651,0.54402 -0.44618,0.61589 -0.22622,0.0958 -0.33988,-0.10952 -0.43437,-0.2696 -0.10233,-0.21012 -0.28198,-0.0673 -0.45165,0.005 l -0.93883,0.39766 c -0.31192,0.14546 0.0756,0.80843 1.40272,3.94163 1.58583,3.74401 1.64092,3.30712 2.05943,3.12985 z m 8.84123,-4.28554 c 0.11486,-0.0712 0.32224,-0.15628 0.21226,-0.3338 -0.18114,-0.29239 -0.71936,-0.50807 -2.01968,-2.60701 -0.96392,-1.55594 -1.2667,-2.69779 -0.48351,-3.18298 0.85628,-0.53048 1.76845,0.94191 2.15661,1.56846 0.61458,0.99204 1.51808,3.33682 1.61512,3.49346 0.0906,0.14619 0.23177,8.8e-4 0.43018,-0.122 l 0.93983,-0.58223 c 0.33416,-0.20702 0.3799,-0.24981 -1.94256,-3.99867 -1.06743,-1.72302 -0.70342,-1.90518 -0.33793,-2.1316 0.39681,-0.24583 1.23629,-0.47689 2.47192,1.51763 1.08036,1.7439 1.39517,3.13841 1.51161,3.32638 0.11645,0.18796 0.3959,-0.0141 0.50033,-0.0788 l 0.71009,-0.4399 c 0.30283,-0.18761 0.9196,-0.0784 -1.05352,-3.26337 -0.82806,-1.33664 -2.34539,-3.87917 -4.26681,-2.68882 -0.37593,0.23289 -0.60908,0.57963 -0.77957,0.88756 -0.16402,0.31837 -0.35347,0.47908 -0.49966,0.56965 -0.26106,0.16173 -0.89281,-0.11161 -1.4045,0.20539 -0.43858,0.2717 -0.6807,0.58065 -0.8328,0.84828 -0.15857,0.2572 -0.22714,0.47308 -0.35245,0.5507 -0.10442,0.0647 -0.25413,0.0563 -0.31883,-0.0481 -0.0906,-0.14619 -0.0882,-0.42223 -0.1658,-0.54754 -0.097,-0.15664 -0.33325,-0.0248 -0.55254,0.11109 -1.42018,0.87982 -1.36853,0.65997 1.35503,5.05627 1.9149,3.09098 1.92717,2.62097 2.28222,2.40102 z m 9.02687,-9.11267 c 0.37141,0.47367 0.57947,0.77883 0.009,1.22604 -0.51233,0.40172 -1.23613,0.45414 -1.6606,-0.0872 -0.46237,-0.58966 -0.24202,-1.54294 0.32831,-1.99015 0.464,-0.36383 0.72435,0.0876 0.98964,0.42598 z m -2.78212,2.38445 c 0.45478,0.58 1.55901,1.64981 3.88868,-0.17692 0.86033,-0.6746 1.75383,-1.40644 1.59466,-1.60944 -0.25772,-0.32866 -0.53212,-0.51936 -0.86563,-0.94469 -0.2653,-0.33834 -2.52825,-3.18451 -3.17088,-3.58599 -1.55417,-0.96677 -2.87092,0.0813 -3.18025,0.32388 -0.88934,0.69735 -1.32784,1.79047 -0.76693,2.5058 0.32593,0.41567 0.95987,0.52738 1.26921,0.28482 0.21266,-0.16676 -0.5842,-0.88439 0.4018,-1.65753 0.42533,-0.33351 1.14232,-0.47424 1.52889,0.0188 0.25013,0.319 0.0657,0.54167 -0.17673,0.80981 -0.93865,1.03261 -1.47788,2.8135 -0.52282,4.0315 z m -2.17986,-6.64214 c 0.009,0.0711 0.028,0.27462 0.0811,0.34229 0.0455,0.058 0.12073,0.0146 0.17873,-0.0309 0.63514,-0.40436 0.76889,-3.10052 0.58698,-3.33252 -0.2274,-0.29 -0.63833,0.1415 -0.80267,0.27036 -0.435,0.34109 -0.4729,0.29276 -0.38578,0.80201 z m 11.05787,2.42454 c 1.07852,-1.00484 1.42953,-2.57429 0.34095,-3.74269 -1.69986,-1.8245 -4.30752,0.6386 -5.17001,-0.28713 -0.25121,-0.26963 0.009,-0.74715 0.28765,-1.00674 0.82687,-0.77038 1.52558,-0.12857 1.75925,-0.34629 0.20672,-0.19259 0.0318,-1.38952 -0.12734,-1.56029 -0.16748,-0.17975 -1.41566,-0.27604 -2.53911,0.77068 -0.97067,0.90436 -1.2988,2.31816 -0.27721,3.41466 1.66637,1.78855 3.86696,-0.71502 4.72945,0.21071 0.42706,0.45837 0.1715,1.04905 -0.197,1.39237 -1.27625,1.18907 -2.76537,0.0413 -2.81031,0.0831 -0.0719,0.067 0.21482,0.80722 0.60838,1.22964 0.97973,1.05156 2.4426,0.72956 3.3953,-0.15806 z m 0.13467,-14.49228 c -0.15795,0.18817 -0.77908,1.46307 -0.46104,1.81023 0.28981,0.32347 0.72714,0.73869 0.4823,1.03036 -0.0632,0.0753 -0.1561,0.10954 -0.18769,0.14717 -0.30012,0.35753 -0.38919,0.63559 0.32586,1.23583 0.16935,0.14216 0.28376,0.25425 0.38643,0.13193 0.0869,-0.10349 0.053,-0.29235 0.19512,-0.46171 0.3554,-0.42338 0.78298,0.0799 1.06523,0.31682 0.17877,0.15006 0.58299,0.58561 1.74024,1.55705 0.51747,0.43438 2.69456,2.10152 2.99468,1.744 0.18165,-0.2164 0.57093,-1.75007 0.4298,-1.86854 -0.15995,-0.13427 -1.01621,0.0451 -3.51889,-2.05573 -0.83735,-0.70291 -1.4395,-1.20837 -1.00512,-1.72584 0.14216,-0.16936 0.3848,-0.28645 0.44798,-0.36172 0.16585,-0.19758 -0.19167,-0.4977 -0.32339,-0.60827 -0.31989,-0.26852 -0.58182,-0.47236 -0.88194,-0.11483 -0.10267,0.12231 -0.15041,0.2747 -0.25308,0.39701 -0.11846,0.14113 -0.27086,0.0934 -0.44021,-0.0488 -0.11291,-0.0948 -0.44989,-0.8588 -0.70392,-1.07205 -0.17876,-0.15005 -0.23707,-0.11881 -0.29236,-0.0529 z m 9.69594,3.25147 c 0.16996,-0.22569 0.45052,-0.47574 0.1365,-0.71221 -0.0883,-0.0665 -1.89751,-0.82916 -4.37036,-2.69131 -1.06961,-0.80545 -1.34402,-1.19661 -1.70709,-1.47002 -0.11776,-0.0887 -0.15458,-0.10103 -0.46494,0.31111 l -0.40642,0.53971 c -0.24385,0.32383 -0.68591,0.23698 2.67011,2.76418 3.45414,2.60108 3.27763,2.40665 3.63971,1.92582 z m -7.28953,-4.9818 c 0.29558,-0.39252 0.34329,-0.92555 -0.0787,-1.2433 -0.42195,-0.31775 -0.9505,-0.14679 -1.24608,0.24572 -0.29557,0.39252 -0.31385,0.94772 0.10811,1.26547 0.42196,0.31775 0.92106,0.12463 1.21664,-0.26789 z m 10.36956,0.89506 c 0.8097,-1.2318 0.72161,-2.73033 -0.58204,-3.58726 -0.0821,-0.054 -0.63613,-0.37405 -0.73735,-0.22008 -0.0945,0.14371 1.18865,0.98715 0.0821,2.6706 -0.33737,0.51325 -1.19919,1.06396 -1.68164,0.74684 -1.06756,-0.70174 1.56705,-3.70342 -0.63991,-5.15413 -1.21126,-0.79619 -2.47521,-0.2599 -3.21742,0.86924 -0.90417,1.3755 -0.57654,3.5607 1.90758,5.19359 1.64239,1.0796 3.66091,1.31862 4.86871,-0.5188 z m -5.59877,-3.82726 c 0.2564,-0.39007 0.84394,-0.68007 1.34692,-0.34945 0.52351,0.34412 -0.29393,2.48224 -0.3749,2.60542 -0.0877,0.13344 -0.23437,0.11055 -0.34728,0.0363 -0.59537,-0.39135 -1.17129,-1.46083 -0.62474,-2.2923 z m 8.5103,-1.2262 c 0.0622,-0.11996 0.19666,-0.29931 0.0113,-0.39541 -0.30537,-0.15829 -0.87808,-0.0677 -3.07017,-1.20404 -1.62498,-0.84233 -2.47004,-1.66779 -2.04605,-2.48573 0.46357,-0.89428 2.0013,-0.0972 2.65565,0.24201 1.03606,0.53705 3.01333,2.08777 3.17692,2.17257 0.15268,0.0791 0.19951,-0.11796 0.30692,-0.32518 l 0.50879,-0.98153 c 0.1809,-0.34899 0.19826,-0.40917 -3.71696,-2.43867 -1.79947,-0.93278 -1.5802,-1.27571 -1.38234,-1.65742 0.21482,-0.41442 0.81736,-1.04296 2.90039,0.0368 1.82128,0.94409 2.80611,1.98036 3.00242,2.08212 0.1963,0.10176 0.33278,-0.21491 0.38931,-0.32397 l 0.38442,-0.7416 c 0.16394,-0.31627 0.74956,-0.53849 -2.57674,-2.26272 -1.39595,-0.72361 -4.00166,-2.12965 -5.04185,-0.12297 -0.20351,0.39262 -0.22608,0.80985 -0.21473,1.16164 0.0223,0.35744 -0.0581,0.59252 -0.13723,0.74521 -0.14133,0.27264 -0.8239,0.36158 -1.10091,0.89597 -0.23744,0.45805 -0.28707,0.84742 -0.28057,1.15518 -0.004,0.30212 0.0473,0.52264 -0.0205,0.65351 -0.0565,0.10906 -0.18941,0.17854 -0.29846,0.12201 -0.15268,-0.0791 -0.29206,-0.31742 -0.42293,-0.38526 -0.16359,-0.0848 -0.29886,0.14948 -0.41758,0.3785 -0.76884,1.48321 -0.83712,1.26794 3.75426,3.64793 3.22815,1.67335 2.99788,1.26342 3.19009,0.89262 z m 1.96391,-11.54869 c -0.20452,0.51356 -0.66555,0.34317 -1.06499,0.18409 -2.27104,-0.90445 -2.14398,-1.3563 -1.90309,-1.96116 0.28634,-0.71897 1.04077,-1.11929 1.78257,-0.82386 0.94722,0.37723 1.59002,1.58524 1.18551,2.60093 z m 2.71036,1.79343 c 0.05,-0.12553 0.16826,-0.3561 -0.0143,-0.42883 -0.12553,-0.05 -1.12487,-0.19676 -1.92373,-0.51491 -0.20542,-0.0818 -0.42448,-0.12938 -0.37903,-0.2435 0.0318,-0.0799 0.30774,-0.1419 0.58588,-0.24268 0.28955,-0.0962 0.6498,-0.20399 0.73161,-0.40942 0.34997,-0.87874 -0.74637,-3.33839 -2.52669,-4.04741 -1.2097,-0.48177 -2.66251,-0.31992 -3.68059,2.23644 -0.77266,1.94009 -1.01656,2.0545 1.41425,3.0226 l 3.35521,1.33623 c 1.96292,0.78174 1.92383,0.58107 2.06473,0.22729 z m 2.95534,-7.64954 c 0.42303,-1.34784 -0.26045,-3.31333 -3.01472,-4.17777 -1.88698,-0.59225 -4.19784,-0.32616 -4.8379,1.71318 -0.64006,2.03933 1.10432,3.57818 2.99129,4.17042 2.75427,0.86445 4.4383,-0.35799 4.86133,-1.70583 z m -1.95729,-0.61431 c -0.37153,1.18375 -1.80329,1.06914 -2.74092,0.77486 -0.9259,-0.2906 -2.13558,-1.03076 -1.77141,-2.19108 0.36417,-1.16031 1.77984,-1.07649 2.70575,-0.78589 0.93763,0.29428 2.1781,1.01836 1.80658,2.20211 z"
         id="path520"
         style="font-size:27.6991px;line-height:1.35;font-family:'Hobo Std';-inkscape-font-specification:'Hobo Std, Normal';text-align:center;letter-spacing:1.19px;text-anchor:middle;white-space:pre;fill:#218942;fill-opacity:1;stroke-width:3.3875"
         aria-label="Disfruta de tu vida por más tiempo" /><path
         d="m 339.15038,510.17938 c -0.17568,0.13649 -0.59042,0.38829 -0.37432,0.66644 0.29572,0.38062 1.94434,0.50831 4.3442,3.59721 2.0359,2.62044 2.11216,6.01216 1.35091,6.6036 -0.35134,0.27297 -3.73608,-0.54829 -5.77199,-3.16873 -2.39986,-3.0889 -2.3064,-4.57007 -2.60211,-4.95069 -0.21611,-0.27815 -0.69436,0.16385 -0.87003,0.30034 l -1.66889,1.29661 c -0.26351,0.20472 -0.73366,0.68737 1.9733,4.17154 5.17505,6.6609 11.11504,5.75514 11.40783,5.52767 0.87836,-0.68243 1.67358,-7.1223 -2.25036,-12.17287 -2.0814,-2.679 -3.50367,-3.45207 -3.84038,-3.19047 z m 16.58146,7.5721 c 0.36835,-0.21478 0.90482,-0.39883 0.60599,-0.91131 -0.084,-0.14413 -2.15602,-2.26223 -4.50922,-6.29795 -1.01785,-1.74561 -1.17118,-2.45021 -1.51669,-3.04275 -0.11206,-0.19218 -0.15609,-0.23089 -0.82871,0.16131 l -0.88081,0.5136 c -0.52848,0.30815 -1.09288,-0.0709 2.10075,5.40612 3.28701,5.63719 3.15497,5.26354 3.93969,4.80597 z m -7.23323,-11.19044 c 0.64059,-0.37352 1.01835,-1.08737 0.61682,-1.77601 -0.40154,-0.68863 -1.23688,-0.7595 -1.87747,-0.38598 -0.64059,0.37352 -0.99034,1.13542 -0.5888,1.82405 0.40153,0.68863 1.20886,0.71146 1.84945,0.33794 z m 13.33679,5.13993 c -1.45072,0.61516 -2.66886,-1.02287 -3.16823,-2.20052 -1.31719,-3.10626 -0.0499,-4.77128 0.68402,-5.08248 0.63149,-0.26778 1.17916,-0.25838 2.45292,2.74547 0.52108,1.22885 1.87457,3.7559 0.0313,4.53753 z m 4.43598,1.05885 c 0.59735,-0.2533 -1.8954,-5.94192 -2.06186,-6.33447 -0.34015,-0.80216 -3.51418,-8.47728 -4.28221,-8.1516 l -1.775,0.75267 c -0.17068,0.0724 -0.59736,0.25331 -0.49604,0.49225 0.27502,0.64856 0.96225,1.08205 1.54846,2.46451 0.1158,0.27307 0.32514,0.90921 -0.0162,1.05395 -0.23894,0.10133 -0.78088,-0.132 -1.13929,0.02 -1.50193,0.63689 -3.19151,3.87037 -1.53417,7.77879 1.46192,3.44761 3.85101,4.42802 5.76256,3.61745 z m 7.64264,-5.88433 c 0.20558,0.88482 0.29532,1.43493 -0.77007,1.68246 -0.95704,0.22236 -1.9803,-0.16797 -2.21524,-1.17918 -0.25592,-1.10151 0.65387,-2.26449 1.71926,-2.51202 0.86676,-0.20138 0.93462,0.5822 1.08146,1.21421 z m -5.32657,1.48498 c 0.25172,1.08344 1.07892,3.25124 5.43077,2.24015 1.60711,-0.37339 3.29612,-0.80387 3.20802,-1.18307 -0.14265,-0.61396 -0.39619,-1.04989 -0.58078,-1.84441 -0.14684,-0.63201 -1.42479,-5.96863 -2.04733,-6.92785 -1.50828,-2.31408 -3.97796,-1.72125 -4.55579,-1.587 -1.66129,0.38597 -2.95868,1.60095 -2.64822,2.9372 0.1804,0.77647 0.97603,1.33387 1.55387,1.19962 0.39726,-0.0923 -0.2344,-1.58231 1.60746,-2.01024 0.79453,-0.1846 1.86485,0.0806 2.07881,1.00153 0.13845,0.59589 -0.2559,0.78267 -0.75859,0.99463 -1.94272,0.81297 -3.81684,2.9042 -3.28822,5.17944 z m 20.37106,-14.67869 c -0.31473,-0.0161 -1.26045,-0.39851 -1.72768,8.74753 -0.35468,6.94285 0.21872,6.61945 0.68157,6.64309 l 2.18469,0.11161 c 0.16662,0.009 0.62664,0.0877 0.61948,-0.13542 0.0289,-0.20271 -0.57924,-2.83254 -0.49696,-4.44328 0.0776,-1.51817 0.94042,-2.42078 2.56968,-2.33754 0.72206,0.0369 1.2087,0.32162 1.39384,0.33108 0.31474,0.0161 1.18435,-2.83526 1.18908,-2.92784 0.016,-0.31474 -0.40975,-0.33649 -0.61341,-0.3469 -2.44388,-0.12484 -2.59848,0.72114 -3.8019,0.65966 -0.53692,-0.0274 -0.57449,-0.38204 -0.51774,-1.49289 0.0908,-1.77737 1.48112,-2.46741 2.7586,-2.40215 1.8144,0.0927 2.32537,0.99123 2.64011,1.00731 0.24069,0.0123 1.55802,-2.51917 1.56558,-2.66728 0.0189,-0.37028 -0.65043,-0.34879 -0.8726,-0.36014 z m 11.67764,16.68699 c 0.20013,0.0392 0.60038,0.11749 0.67554,-0.17004 0.0641,-0.32748 -0.25539,-1.97677 0.45315,-5.59723 0.21363,-1.0916 0.80346,-3.52633 2.33169,-3.22724 1.25534,0.24568 0.76208,1.41478 0.9804,1.4575 0.5458,0.10682 1.73236,-0.45435 1.98159,-1.72788 0.19227,-0.98243 -0.41518,-1.93248 -1.34304,-2.11407 -0.49122,-0.0961 -0.98483,0.10951 -1.42029,0.30764 -0.43903,0.21632 -0.80529,0.44688 -1.07818,0.39348 -0.36387,-0.0712 -0.3326,-0.42401 -0.31558,-0.70403 0.0495,-0.34923 -0.29583,-0.32235 -0.56873,-0.37576 l -1.51004,-0.29552 c -0.51297,-0.0815 -0.58818,1.07496 -1.57444,6.11449 -1.17853,6.02198 -0.74068,5.52208 -0.0675,5.65381 z m 16.41003,-7.82184 c -0.19329,-0.065 -0.59154,-0.21841 -0.66834,0.01 -0.0945,0.28116 -0.3892,3.194 -1.09806,5.30265 -1.27004,3.77799 -2.66459,3.50477 -3.24447,3.30983 -1.5112,-0.50801 -0.59573,-3.17306 -0.26493,-4.1571 1.11646,-3.32112 2.51549,-4.80659 2.6041,-5.07018 0.11814,-0.35144 -0.38584,-0.42307 -0.61428,-0.49986 l -1.61663,-0.54347 c -0.73803,-0.2481 -2.63319,4.98218 -2.73361,5.2809 -1.68945,5.02561 -0.64357,6.39421 0.81491,6.88451 0.57988,0.19494 1.05492,0.11993 1.43619,0.033 0.38719,-0.10454 0.9154,-0.33768 1.07354,-0.28452 1.00161,0.33671 -0.73496,0.84817 1.11011,1.46842 1.26519,0.42532 1.62164,0.87764 3.78958,-5.57131 0.56118,-1.66935 1.78412,-5.36539 1.04609,-5.6135 z m 11.18459,1.78082 c -0.33588,-0.15702 -2.43663,-0.56608 -2.81893,0.0328 -0.35875,0.54854 -0.79382,1.34789 -1.31443,1.10451 -0.13435,-0.0628 -0.22051,-0.18493 -0.28768,-0.21634 -0.63817,-0.29833 -1.0783,-0.3199 -1.67496,0.95644 -0.14132,0.30229 -0.26017,0.51276 -0.0419,0.61482 0.18473,0.0864 0.44688,-0.0367 0.74917,0.10465 0.75573,0.35329 0.18849,1.17271 -0.047,1.67653 -0.14916,0.31909 -0.62677,1.07809 -1.59241,3.14375 -0.4318,0.92367 -2.01459,4.74723 -1.37642,5.04556 0.38625,0.18057 2.774,0.1508 2.89176,-0.10111 0.13347,-0.2855 -0.46156,-1.46407 1.62676,-5.93127 0.69872,-1.49466 1.20117,-2.56947 2.12484,-2.13768 0.30229,0.14132 0.56752,0.44948 0.70187,0.51229 0.35267,0.16486 0.651,-0.47331 0.76091,-0.70843 0.26693,-0.57099 0.46211,-1.03228 -0.17606,-1.33061 -0.21832,-0.10206 -0.45911,-0.1123 -0.67743,-0.21436 -0.2519,-0.11776 -0.24166,-0.35854 -0.10035,-0.66083 0.0942,-0.20153 1.07693,-0.99044 1.2889,-1.44387 0.14917,-0.31909 0.0809,-0.39193 -0.0367,-0.44689 z m 3.67852,14.49061 c -0.46839,0.77831 -0.78694,1.2357 -1.72408,0.67172 -0.84184,-0.50664 -1.3047,-1.4992 -0.76939,-2.3887 0.58311,-0.96891 2.04586,-1.17043 2.98301,-0.60644 0.76242,0.45884 0.26563,1.0686 -0.0689,1.62454 z m -4.85764,-2.64213 c -0.57355,0.95303 -1.48886,3.08513 2.33914,5.38888 1.41366,0.85076 2.92586,1.71755 3.1266,1.38399 0.32501,-0.54005 0.44647,-1.0295 0.86708,-1.72839 0.33457,-0.55593 3.1323,-5.27666 3.35317,-6.39866 0.5282,-2.71125 -1.65744,-4.00497 -2.16572,-4.31086 -1.46131,-0.87944 -3.2385,-0.91043 -3.94588,0.26498 -0.41104,0.683 -0.22792,1.63704 0.28037,1.94293 0.34944,0.2103 0.93327,-1.29909 2.55342,-0.32406 0.69889,0.4206 1.28263,1.3561 0.79512,2.16617 -0.31545,0.52417 -0.72858,0.38373 -1.237,0.18593 -1.96061,-0.76883 -4.76185,-0.57227 -5.9663,1.42909 z m 9.77986,10.44859 c 0.16418,0.12095 0.49727,0.48146 0.68419,0.22773 0.14294,-0.19403 1.06016,-2.62681 4.08392,-6.73133 2.73787,-3.71646 4.9481,-5.40393 5.01407,-5.49349 0.2419,-0.32836 -0.23886,-0.61345 -0.40304,-0.73439 l -1.41792,-1.04457 c -0.67165,-0.4948 -5.53793,6.23582 -6.05471,6.93733 -0.2529,0.34328 -3.99609,5.29936 -3.47369,5.6842 z"
         id="path521"
         style="font-size:41.802px;line-height:1.35;font-family:'Hobo Std';-inkscape-font-specification:'Hobo Std, Normal';text-align:center;letter-spacing:2.74px;text-anchor:middle;white-space:pre;fill:#218942;fill-opacity:1;stroke-width:3.3875"
         aria-label="Vida Frutal" /><path
         style="fill:#77b943;fill-opacity:1;stroke:none;stroke-width:1.00569;stroke-linecap:round;stroke-linejoin:round;stroke-miterlimit:0;stroke-dasharray:none;stroke-opacity:1;paint-order:markers fill stroke"
         d="m 382.11044,533.45651 c 4.51202,-5.8564 0.72084,-9.15586 -4.79891,-11.92302 0.0886,2.24184 -0.76257,4.60374 -0.16763,7.03657 0.57153,2.33712 3.06906,3.37893 4.96654,4.88645 z"
         id="path527"
         sodipodi:nodetypes="ccsc" /><path
         style="fill:#77b943;fill-opacity:1;stroke:none;stroke-width:0.982324;stroke-linecap:round;stroke-linejoin:round;stroke-miterlimit:0;stroke-dasharray:none;stroke-opacity:1;paint-order:markers fill stroke"
         d="m 369.76822,536.98045 c 2.00687,-6.93673 -2.61905,-8.57999 -8.6258,-9.12125 0.88228,2.00602 0.95323,4.45727 2.364,6.45583 1.35529,1.91993 3.99797,1.97373 6.2618,2.66542 z"
         id="path528"
         sodipodi:nodetypes="ccsc" /><path
         style="fill:#77b943;fill-opacity:1;stroke:none;stroke-width:0.921576;stroke-linecap:round;stroke-linejoin:round;stroke-miterlimit:0;stroke-dasharray:none;stroke-opacity:1;paint-order:markers fill stroke"
         d="m 354.05104,549.48322 c 1.88277,-6.50776 -2.45708,-8.0494 -8.09238,-8.55719 0.82772,1.88196 0.89428,4.18163 2.21781,6.0566 1.27148,1.80121 3.75074,1.85168 5.87457,2.50059 z"
         id="path529"
         sodipodi:nodetypes="ccsc" /><path
         style="fill:#77b943;fill-opacity:1;stroke:none;stroke-width:1.14211;stroke-linecap:round;stroke-linejoin:round;stroke-miterlimit:0;stroke-dasharray:none;stroke-opacity:1;paint-order:markers fill stroke"
         d="m 352.6559,560.90974 c 0.4821,-8.38201 -5.18645,-9.04917 -12.13545,-8.11025 1.51859,2.04594 2.23256,4.80629 4.34832,6.70719 2.03254,1.82611 5.04213,1.20407 7.78713,1.40306 z"
         id="path530"
         sodipodi:nodetypes="ccsc" /><path
         style="fill:#77b943;fill-opacity:1;stroke:none;stroke-width:0.907389;stroke-linecap:round;stroke-linejoin:round;stroke-miterlimit:0;stroke-dasharray:none;stroke-opacity:1;paint-order:markers fill stroke"
         d="m 351.04002,571.14123 c -3.99105,-5.34463 -7.77987,-2.85307 -11.52658,1.26985 1.96941,0.46822 3.81456,1.78222 6.07304,1.85699 2.16964,0.0718 3.68224,-1.84482 5.45354,-3.12684 z"
         id="path531"
         sodipodi:nodetypes="ccsc" /><path
         style="fill:#77b943;fill-opacity:1;stroke:none;stroke-width:0.980692;stroke-linecap:round;stroke-linejoin:round;stroke-miterlimit:0;stroke-dasharray:none;stroke-opacity:1;paint-order:markers fill stroke"
         d="m 395.52377,534.25249 c -1.70568,-7.00453 2.97846,-8.44615 8.99286,-8.72968 -0.96562,1.96321 -1.141,4.40512 -2.63343,6.33834 -1.43373,1.85715 -4.07191,1.79804 -6.35943,2.39134 z"
         id="path532"
         sodipodi:nodetypes="ccsc" /><path
         style="fill:#77b943;fill-opacity:1;stroke:none;stroke-width:0.980692;stroke-linecap:round;stroke-linejoin:round;stroke-miterlimit:0;stroke-dasharray:none;stroke-opacity:1;paint-order:markers fill stroke"
         d="m 410.97126,541.29542 c -1.70567,-7.00453 2.97847,-8.44615 8.99286,-8.72968 -0.96561,1.96321 -1.14099,4.40512 -2.63342,6.33834 -1.43373,1.85715 -4.07191,1.79804 -6.35944,2.39134 z"
         id="path533"
         sodipodi:nodetypes="ccsc" /><path
         style="fill:#77b943;fill-opacity:1;stroke:none;stroke-width:0.895446;stroke-linecap:round;stroke-linejoin:round;stroke-miterlimit:0;stroke-dasharray:none;stroke-opacity:1;paint-order:markers fill stroke"
         d="m 424.76721,546.1668 c -1.55741,-6.39565 2.71956,-7.71196 8.21115,-7.97084 -0.88168,1.79256 -1.04181,4.0222 -2.40451,5.78737 -1.3091,1.69572 -3.71796,1.64175 -5.80664,2.18347 z"
         id="path534"
         sodipodi:nodetypes="ccsc" /><path
         style="fill:#77b943;fill-opacity:1;stroke:none;stroke-width:0.895446;stroke-linecap:round;stroke-linejoin:round;stroke-miterlimit:0;stroke-dasharray:none;stroke-opacity:1;paint-order:markers fill stroke"
         d="m 430.61739,564.02837 c -1.55741,-6.39566 2.71956,-7.71197 8.21115,-7.97085 -0.88168,1.79256 -1.04181,4.0222 -2.40451,5.78738 -1.30911,1.69572 -3.71796,1.64174 -5.80664,2.18347 z"
         id="path535"
         sodipodi:nodetypes="ccsc" /><path
         style="fill:#77b943;fill-opacity:1;stroke:none;stroke-width:0.895446;stroke-linecap:round;stroke-linejoin:round;stroke-miterlimit:0;stroke-dasharray:none;stroke-opacity:1;paint-order:markers fill stroke"
         d="m 422.36083,581.67245 c 4.15501,-5.10546 7.78817,-2.49293 11.31269,1.72634 -1.96105,0.38062 -3.8344,1.60027 -6.06429,1.58106 -2.14217,-0.0185 -3.55469,-1.97047 -5.2484,-3.3074 z"
         id="path537"
         sodipodi:nodetypes="ccsc" /><path
         id="path538"
         style="fill:#218942;fill-opacity:1;stroke:none;stroke-width:0.594043;stroke-linecap:round;stroke-linejoin:round;stroke-miterlimit:0;stroke-dasharray:none;stroke-opacity:1;paint-order:markers fill stroke"
         d="m 414.18753,590.23565 c -0.26842,4.3586 2.67908,4.71709 6.29536,4.24338 -0.44708,-0.60745 -0.75879,-1.33415 -1.14595,-2.03118 -0.0702,-0.0811 -0.1407,-0.16047 -0.21135,-0.23646 l -0.4634,-0.49805 0.13079,-0.1178 c -0.16448,-0.21713 -0.34777,-0.42386 -0.55781,-0.61412 -1.05335,-0.95407 -2.62035,-0.6365 -4.04764,-0.74577 z" /><path
         style="fill:#77b943;fill-opacity:1;stroke:none;stroke-width:0.759235;stroke-linecap:round;stroke-linejoin:round;stroke-miterlimit:0;stroke-dasharray:none;stroke-opacity:1;paint-order:markers fill stroke"
         d="m 419.61641,591.75475 c 4.14386,-3.73878 6.84912,-1.07838 9.2549,2.91422 -1.69254,0.0645 -3.42046,0.84337 -5.28638,0.53797 -1.79252,-0.29342 -2.72282,-2.11224 -3.96852,-3.45219 z"
         id="path539"
         sodipodi:nodetypes="ccsc" /><path
         style="fill:#77b943;fill-opacity:1;stroke:none;stroke-width:0.907496;stroke-linecap:round;stroke-linejoin:round;stroke-miterlimit:0;stroke-dasharray:none;stroke-opacity:1;paint-order:markers fill stroke"
         d="m 428.21339,569.86408 c 4.01417,-5.32824 7.79279,-2.82033 11.52239,1.31893 -1.9716,0.4599 -3.82253,1.7662 -6.08156,1.83139 -2.17016,0.0626 -3.67479,-1.86064 -5.44083,-3.15032 z"
         id="path540"
         sodipodi:nodetypes="ccsc" /><path
         style="fill:#77b943;fill-opacity:1;stroke:none;stroke-width:0.907389;stroke-linecap:round;stroke-linejoin:round;stroke-miterlimit:0;stroke-dasharray:none;stroke-opacity:1;paint-order:markers fill stroke"
         d="m 353.62019,580.93251 c -5.8132,-3.27115 -8.26884,0.54105 -10.02551,5.82787 1.99035,-0.36923 4.20951,0.0852 6.30488,-0.7608 2.01293,-0.81275 2.62004,-3.17768 3.72063,-5.06707 z"
         id="path541"
         sodipodi:nodetypes="ccsc" /><path
         style="fill:#77b943;fill-opacity:1;stroke:none;stroke-width:0.832951;stroke-linecap:round;stroke-linejoin:round;stroke-miterlimit:0;stroke-dasharray:none;stroke-opacity:1;paint-order:markers fill stroke"
         d="m 357.51307,590.43385 c -5.99257,-1.25776 -7.08918,2.75783 -7.16656,7.87123 1.64039,-0.87303 3.7086,-1.08822 5.30921,-2.40767 1.53763,-1.26754 1.41581,-3.50553 1.85735,-5.46356 z"
         id="path542"
         sodipodi:nodetypes="ccsc" /><path
         style="fill:#77b943;fill-opacity:1;stroke:none;stroke-width:0.706075;stroke-linecap:round;stroke-linejoin:round;stroke-miterlimit:0;stroke-dasharray:none;stroke-opacity:1;paint-order:markers fill stroke"
         d="m 397.65779,541.39658 c -1.22805,-5.04311 2.14444,-6.08104 6.47467,-6.28518 -0.69522,1.41347 -0.82149,3.17159 -1.89601,4.56346 -1.03225,1.33711 -2.93169,1.29455 -4.57866,1.72172 z"
         id="path543"
         sodipodi:nodetypes="ccsc" /><path
         style="fill:#77b943;fill-opacity:1;stroke:none;stroke-width:0.686026;stroke-linecap:round;stroke-linejoin:round;stroke-miterlimit:0;stroke-dasharray:none;stroke-opacity:1;paint-order:markers fill stroke"
         d="m 404.94527,549.72525 c -1.18998,-4.90067 2.0874,-5.90699 6.29479,-6.10258 -0.67638,1.37288 -0.80018,3.081 -1.84507,4.43267 -1.00378,1.29848 -2.84925,1.25593 -4.44972,1.66991 z"
         id="path544"
         sodipodi:nodetypes="ccsc" /><path
         style="fill:#77b943;fill-opacity:1;stroke:none;stroke-width:0.642742;stroke-linecap:round;stroke-linejoin:round;stroke-miterlimit:0;stroke-dasharray:none;stroke-opacity:1;paint-order:markers fill stroke"
         d="m 414.57487,558.014 c -2.75586,-3.83795 -0.26316,-5.8638 3.32217,-7.51237 -0.10492,1.43004 0.38789,2.95704 -0.0445,4.49818 -0.41542,1.48051 -2.03314,2.09215 -3.27764,3.01419 z"
         id="path545"
         sodipodi:nodetypes="ccsc" /><path
         style="fill:#77b943;fill-opacity:1;stroke:none;stroke-width:0.642742;stroke-linecap:round;stroke-linejoin:round;stroke-miterlimit:0;stroke-dasharray:none;stroke-opacity:1;paint-order:markers fill stroke"
         d="m 398.58578,556.90184 c -2.75586,-3.83795 -0.26317,-5.8638 3.32216,-7.51237 -0.10491,1.43004 0.3879,2.95704 -0.0445,4.49817 -0.41541,1.48051 -2.03314,2.09215 -3.27763,3.0142 z"
         id="path546"
         sodipodi:nodetypes="ccsc" /><path
         style="fill:#77b943;fill-opacity:1;stroke:none;stroke-width:0.642742;stroke-linecap:round;stroke-linejoin:round;stroke-miterlimit:0;stroke-dasharray:none;stroke-opacity:1;paint-order:markers fill stroke"
         d="m 386.60621,541.59257 c 0.82496,-4.65232 -2.2987,-5.40087 -6.24436,-5.3367 0.71306,1.24402 0.92912,2.83395 1.98552,4.03649 1.01485,1.15523 2.73798,1.00707 4.25884,1.30021 z"
         id="path547"
         sodipodi:nodetypes="ccsc" /><path
         style="fill:#77b943;fill-opacity:1;stroke:none;stroke-width:0.642742;stroke-linecap:round;stroke-linejoin:round;stroke-miterlimit:0;stroke-dasharray:none;stroke-opacity:1;paint-order:markers fill stroke"
         d="m 377.16542,544.97468 c 1.22021,-4.56462 -1.8279,-5.57783 -5.76458,-5.85168 0.60394,1.3005 0.68311,2.90309 1.63268,4.19165 0.91223,1.23787 2.64171,1.23777 4.1319,1.66003 z"
         id="path548"
         sodipodi:nodetypes="ccsc" /><path
         style="fill:#77b943;fill-opacity:1;stroke:none;stroke-width:0.642742;stroke-linecap:round;stroke-linejoin:round;stroke-miterlimit:0;stroke-dasharray:none;stroke-opacity:1;paint-order:markers fill stroke"
         d="m 366.52767,547.19081 c 4.45956,-1.56108 3.58109,-4.65072 1.59134,-8.05855 -0.73488,1.23125 -2.01486,2.19884 -2.54532,3.70904 -0.50956,1.4508 0.4641,2.88016 0.95398,4.34951 z"
         id="path549"
         sodipodi:nodetypes="ccsc" /><path
         style="fill:#77b943;fill-opacity:1;stroke:none;stroke-width:0.642742;stroke-linecap:round;stroke-linejoin:round;stroke-miterlimit:0;stroke-dasharray:none;stroke-opacity:1;paint-order:markers fill stroke"
         d="m 361.49384,550.54284 c 1.08202,-4.59933 -1.99526,-5.52018 -5.9384,-5.67521 0.64288,1.2817 0.77033,2.88117 1.75832,4.14052 0.94915,1.2098 2.67784,1.15755 4.18008,1.53469 z"
         id="path550"
         sodipodi:nodetypes="ccsc" /><path
         style="fill:#77b943;fill-opacity:1;stroke:none;stroke-width:0.659337;stroke-linecap:round;stroke-linejoin:round;stroke-miterlimit:0;stroke-dasharray:none;stroke-opacity:1;paint-order:markers fill stroke"
         d="m 391.00928,586.01342 c 4.69435,-1.20631 5.70339,1.93039 5.94521,5.97123 -1.32801,-0.63243 -2.97111,-0.72955 -4.28344,-1.71638 -1.26071,-0.94804 -1.24344,-2.72209 -1.66177,-4.25485 z"
         id="path551"
         sodipodi:nodetypes="ccsc" /><path
         style="fill:#77b943;fill-opacity:1;stroke:none;stroke-width:0.659337;stroke-linecap:round;stroke-linejoin:round;stroke-miterlimit:0;stroke-dasharray:none;stroke-opacity:1;paint-order:markers fill stroke"
         d="m 394.0885,581.83122 c 4.81542,-0.55119 5.3848,2.69425 5.07023,6.73007 -1.22874,-0.80856 -2.843,-1.13007 -4.00762,-2.28754 -1.11879,-1.11196 -0.85842,-2.86688 -1.06261,-4.44253 z"
         id="path552"
         sodipodi:nodetypes="ccsc" /><path
         style="fill:#77b943;fill-opacity:1;stroke:none;stroke-width:0.659337;stroke-linecap:round;stroke-linejoin:round;stroke-miterlimit:0;stroke-dasharray:none;stroke-opacity:1;paint-order:markers fill stroke"
         d="m 382.20847,584.51346 c -4.84544,-0.11761 -5.12179,3.16579 -4.44695,7.15721 1.15137,-0.91538 2.73034,-1.38021 3.78658,-2.63735 1.01469,-1.20772 0.59815,-2.93226 0.66037,-4.51986 z"
         id="path553"
         sodipodi:nodetypes="ccsc" /><path
         style="fill:#77b943;fill-opacity:1;stroke:none;stroke-width:0.524807;stroke-linecap:round;stroke-linejoin:round;stroke-miterlimit:0;stroke-dasharray:none;stroke-opacity:1;paint-order:markers fill stroke"
         d="m 378.37013,582.66725 c -3.68964,-1.12702 -4.60411,1.33109 -4.94084,4.53557 1.07859,-0.45542 2.38859,-0.4739 3.46738,-1.21168 1.03635,-0.70878 1.08604,-2.12005 1.47346,-3.32389 z"
         id="path554"
         sodipodi:nodetypes="ccsc" /><path
         style="fill:#77b943;fill-opacity:1;stroke:none;stroke-width:0.655204;stroke-linecap:round;stroke-linejoin:round;stroke-miterlimit:0;stroke-dasharray:none;stroke-opacity:1;paint-order:markers fill stroke"
         d="m 366.23446,584.11258 c -4.0533,2.60182 -2.45209,5.45797 0.32628,8.36706 0.43777,-1.3946 1.47838,-2.65654 1.64752,-4.27943 0.16246,-1.55908 -1.14081,-2.74639 -1.9738,-4.08763 z"
         id="path555"
         sodipodi:nodetypes="ccsc" /><path
         style="fill:#77b943;fill-opacity:1;stroke:none;stroke-width:0.567589;stroke-linecap:round;stroke-linejoin:round;stroke-miterlimit:0;stroke-dasharray:none;stroke-opacity:1;paint-order:markers fill stroke"
         d="m 359.54256,587.26504 c -2.19056,-3.55115 -4.68926,-2.20866 -7.2521,0.1526 1.20112,0.40083 2.27797,1.32175 3.68098,1.49347 1.34785,0.16493 2.39647,-0.94544 3.57112,-1.64607 z"
         id="path556"
         sodipodi:nodetypes="ccsc" /><path
         style="fill:#77b943;fill-opacity:1;stroke:none;stroke-width:0.567589;stroke-linecap:round;stroke-linejoin:round;stroke-miterlimit:0;stroke-dasharray:none;stroke-opacity:1;paint-order:markers fill stroke"
         d="m 353.24025,576.95541 c -2.58541,-3.27488 -4.91265,-1.65324 -7.18614,0.98777 1.23932,0.25967 2.41518,1.05028 3.82863,1.05908 1.35788,0.008 2.27148,-1.21544 3.35751,-2.04685 z"
         id="path557"
         sodipodi:nodetypes="ccsc" /><path
         style="fill:#77b943;fill-opacity:1;stroke:none;stroke-width:0.642946;stroke-linecap:round;stroke-linejoin:round;stroke-miterlimit:0;stroke-dasharray:none;stroke-opacity:1;paint-order:markers fill stroke"
         d="m 367.04048,567.46366 c -3.77384,-2.84549 -5.85789,-0.39994 -7.59016,3.14709 1.43255,-0.0716 2.94813,0.45687 4.4994,0.0604 1.49027,-0.38093 2.13967,-1.98445 3.09076,-3.20747 z"
         id="path558"
         sodipodi:nodetypes="ccsc" /><path
         style="fill:#77b943;fill-opacity:1;stroke:none;stroke-width:0.642946;stroke-linecap:round;stroke-linejoin:round;stroke-miterlimit:0;stroke-dasharray:none;stroke-opacity:1;paint-order:markers fill stroke"
         d="m 368.89638,574.61907 c -3.77384,-2.84549 -5.85789,-0.39994 -7.59015,3.14709 1.43255,-0.0716 2.94812,0.45687 4.49939,0.0604 1.49027,-0.38093 2.13967,-1.98445 3.09076,-3.20747 z"
         id="path559"
         sodipodi:nodetypes="ccsc" /><path
         style="fill:#77b943;fill-opacity:1;stroke:none;stroke-width:0.642946;stroke-linecap:round;stroke-linejoin:round;stroke-miterlimit:0;stroke-dasharray:none;stroke-opacity:1;paint-order:markers fill stroke"
         d="m 358.35089,574.48859 c 1.54141,-4.46797 -1.42807,-5.69521 -5.33662,-6.24781 0.51033,1.34048 0.4756,2.94516 1.33164,4.29825 0.82239,1.29987 2.54807,1.4225 4.00498,1.94956 z"
         id="path560"
         sodipodi:nodetypes="ccsc" /><path
         style="fill:#77b943;fill-opacity:1;stroke:none;stroke-width:0.642946;stroke-linecap:round;stroke-linejoin:round;stroke-miterlimit:0;stroke-dasharray:none;stroke-opacity:1;paint-order:markers fill stroke"
         d="m 372.89405,562.81133 c -0.67312,-4.6782 -3.87509,-4.41117 -7.60352,-3.11464 1.06699,0.95857 1.77015,2.40139 3.15032,3.21304 1.32592,0.77971 2.91656,0.0994 4.4532,-0.0984 z"
         id="path620"
         sodipodi:nodetypes="ccsc" /><path
         style="fill:#77b943;fill-opacity:1;stroke:none;stroke-width:0.642946;stroke-linecap:round;stroke-linejoin:round;stroke-miterlimit:0;stroke-dasharray:none;stroke-opacity:1;paint-order:markers fill stroke"
         d="m 383.75604,555.30795 c -0.67312,-4.6782 -3.8751,-4.41118 -7.60352,-3.11465 1.06698,0.95857 1.77015,2.4014 3.15032,3.21304 1.32592,0.77971 2.91656,0.0994 4.4532,-0.0984 z"
         id="path621"
         sodipodi:nodetypes="ccsc" /><path
         style="fill:#77b943;fill-opacity:1;stroke:none;stroke-width:0.642946;stroke-linecap:round;stroke-linejoin:round;stroke-miterlimit:0;stroke-dasharray:none;stroke-opacity:1;paint-order:markers fill stroke"
         d="m 385.18966,569.92049 c 4.26475,-2.03729 3.05522,-5.01403 0.70605,-8.18634 -0.59686,1.30426 -1.76442,2.40561 -2.12767,3.96501 -0.34894,1.49808 0.7747,2.81354 1.42162,4.22133 z"
         id="path623"
         sodipodi:nodetypes="ccsc" /><path
         style="fill:#77b943;fill-opacity:1;stroke:none;stroke-width:0.642946;stroke-linecap:round;stroke-linejoin:round;stroke-miterlimit:0;stroke-dasharray:none;stroke-opacity:1;paint-order:markers fill stroke"
         d="m 396.02326,568.86052 c -3.28579,-3.39739 -1.11356,-5.76497 2.1949,-7.91814 0.10423,1.43053 0.8141,2.87008 0.61037,4.45821 -0.19574,1.52567 -1.70777,2.36636 -2.80527,3.45993 z"
         id="path624"
         sodipodi:nodetypes="ccsc" /><path
         style="fill:#77b943;fill-opacity:1;stroke:none;stroke-width:0.642946;stroke-linecap:round;stroke-linejoin:round;stroke-miterlimit:0;stroke-dasharray:none;stroke-opacity:1;paint-order:markers fill stroke"
         d="m 402.96629,565.6271 c -3.2858,-3.3974 -1.11357,-5.76497 2.19489,-7.91815 0.10424,1.43054 0.8141,2.87009 0.61037,4.45821 -0.19574,1.52568 -1.70777,2.36637 -2.80526,3.45994 z"
         id="path625"
         sodipodi:nodetypes="ccsc" /><path
         style="fill:#77b943;fill-opacity:1;stroke:none;stroke-width:0.642946;stroke-linecap:round;stroke-linejoin:round;stroke-miterlimit:0;stroke-dasharray:none;stroke-opacity:1;paint-order:markers fill stroke"
         d="m 409.91486,571.42565 c -2.66841,-3.90106 -0.12935,-5.87011 3.49379,-7.43694 -0.13755,1.42772 0.32042,2.96605 -0.14719,4.49739 -0.44924,1.47112 -2.08101,2.04588 -3.3466,2.93955 z"
         id="path626"
         sodipodi:nodetypes="ccsc" /><path
         style="fill:#77b943;fill-opacity:1;stroke:none;stroke-width:0.642946;stroke-linecap:round;stroke-linejoin:round;stroke-miterlimit:0;stroke-dasharray:none;stroke-opacity:1;paint-order:markers fill stroke"
         d="m 403.23726,574.54509 c -2.66842,-3.90106 -0.12936,-5.8701 3.49378,-7.43694 -0.13754,1.42772 0.32042,2.96605 -0.14718,4.49739 -0.44924,1.47113 -2.08101,2.04588 -3.3466,2.93955 z"
         id="path627"
         sodipodi:nodetypes="ccsc" /><path
         style="fill:#77b943;fill-opacity:1;stroke:none;stroke-width:0.642946;stroke-linecap:round;stroke-linejoin:round;stroke-miterlimit:0;stroke-dasharray:none;stroke-opacity:1;paint-order:markers fill stroke"
         d="m 420.65236,570.1266 c -1.10337,-4.59579 1.97062,-5.53096 5.91424,-5.70406 -0.63721,1.28501 -0.75739,2.88556 -1.73992,4.1498 -0.94391,1.21451 -2.67337,1.17016 -4.17432,1.55426 z"
         id="path628"
         sodipodi:nodetypes="ccsc" /><path
         style="fill:#77b943;fill-opacity:1;stroke:none;stroke-width:0.642946;stroke-linecap:round;stroke-linejoin:round;stroke-miterlimit:0;stroke-dasharray:none;stroke-opacity:1;paint-order:markers fill stroke"
         d="m 415.22157,573.41168 c 4.32027,-1.91677 5.79624,0.93725 6.6801,4.78444 -1.37911,-0.39416 -2.97499,-0.22273 -4.39615,-0.96027 -1.36526,-0.70857 -1.63459,-2.41751 -2.28395,-3.82417 z"
         id="path629"
         sodipodi:nodetypes="ccsc" /><path
         style="fill:#77b943;fill-opacity:1;stroke:none;stroke-width:0.516021;stroke-linecap:round;stroke-linejoin:round;stroke-miterlimit:0;stroke-dasharray:none;stroke-opacity:1;paint-order:markers fill stroke"
         d="m 404.67516,584.42767 c 0.0701,3.79269 2.64664,3.89898 5.74503,3.23786 -0.75423,-0.86968 -1.17049,-2.08876 -2.18879,-2.87263 -0.97827,-0.75302 -2.31279,-0.36966 -3.55624,-0.36523 z"
         id="path630"
         sodipodi:nodetypes="ccsc" /><path
         style="fill:#77b943;fill-opacity:1;stroke:none;stroke-width:0.516021;stroke-linecap:round;stroke-linejoin:round;stroke-miterlimit:0;stroke-dasharray:none;stroke-opacity:1;paint-order:markers fill stroke"
         d="m 384.13166,575.32303 c -0.40493,-3.77167 -2.98083,-3.64986 -6.00868,-2.71753 0.82814,0.79963 1.35049,1.97716 2.43407,2.66797 1.04098,0.66364 2.33641,0.16385 3.57461,0.0495 z"
         id="path631"
         sodipodi:nodetypes="ccsc" /><path
         style="fill:#77b943;fill-opacity:1;stroke:none;stroke-width:0.516021;stroke-linecap:round;stroke-linejoin:round;stroke-miterlimit:0;stroke-dasharray:none;stroke-opacity:1;paint-order:markers fill stroke"
         d="m 376.67777,580.44832 c 1.49418,-3.48667 -0.81129,-4.64205 -3.90776,-5.31211 0.33039,1.10275 0.20909,2.38521 0.81549,3.5182 0.58256,1.08843 1.95677,1.28714 3.09227,1.79391 z"
         id="path632"
         sodipodi:nodetypes="ccsc" /><path
         style="fill:#77b943;fill-opacity:1;stroke:none;stroke-width:0.516021;stroke-linecap:round;stroke-linejoin:round;stroke-miterlimit:0;stroke-dasharray:none;stroke-opacity:1;paint-order:markers fill stroke"
         d="m 386.19787,579.74889 c -3.32476,-1.82631 -4.69896,0.35581 -5.6671,3.3724 1.12966,-0.22154 2.39424,0.0239 3.58085,-0.46934 1.13994,-0.4739 1.47141,-1.82225 2.08625,-2.90306 z"
         id="path633"
         sodipodi:nodetypes="ccsc" /><path
         style="fill:#77b943;fill-opacity:1;stroke:none;stroke-width:0.642742;stroke-linecap:round;stroke-linejoin:round;stroke-miterlimit:0;stroke-dasharray:none;stroke-opacity:1;paint-order:markers fill stroke"
         d="m 419.70373,550.45214 c -1.11031,-4.59259 1.96123,-5.53236 5.90334,-5.71166 -0.63498,1.28562 -0.75257,2.88586 -1.73279,4.15126 -0.94167,1.21562 -2.67066,1.17402 -4.17055,1.5604 z"
         id="path634"
         sodipodi:nodetypes="ccsc" /><path
         style="fill:#77b943;fill-opacity:1;stroke:none;stroke-width:0.572193;stroke-linecap:round;stroke-linejoin:round;stroke-miterlimit:0;stroke-dasharray:none;stroke-opacity:1;paint-order:markers fill stroke"
         d="m 407.3581,562.16661 c 3.04112,2.90593 5.13649,0.96007 7.03494,-1.99584 -1.27366,-0.0851 -2.55857,-0.70911 -3.97084,-0.51927 -1.35671,0.18238 -2.09675,1.53251 -3.0641,2.51511 z"
         id="path635"
         sodipodi:nodetypes="ccsc" /><path
         style="fill:#218942;fill-opacity:1;stroke:none;stroke-width:0.642946;stroke-linecap:round;stroke-linejoin:round;stroke-miterlimit:0;stroke-dasharray:none;stroke-opacity:1;paint-order:markers fill stroke"
         d="m 350.24688,565.73553 c -0.69837,-4.67449 -3.89886,-4.39017 -7.62023,-3.07353 1.07215,0.95279 1.78309,2.3918 3.16763,3.19598 1.33012,0.77253 2.91706,0.0836 4.4526,-0.12245 z"
         id="path636"
         sodipodi:nodetypes="ccsc" /><path
         style="fill:#218942;fill-opacity:1;stroke:none;stroke-width:0.697108;stroke-linecap:round;stroke-linejoin:round;stroke-miterlimit:0;stroke-dasharray:none;stroke-opacity:1;paint-order:markers fill stroke"
         d="m 361.256,566.03195 c 3.66608,-3.58058 1.38496,-6.21365 -2.13423,-8.64948 -0.15716,1.54721 -0.97098,3.08546 -0.79924,4.81295 0.16503,1.65958 1.77779,2.61742 2.93347,3.83653 z"
         id="path637"
         sodipodi:nodetypes="ccsc" /><path
         style="fill:#218942;fill-opacity:1;stroke:none;stroke-width:0.594043;stroke-linecap:round;stroke-linejoin:round;stroke-miterlimit:0;stroke-dasharray:none;stroke-opacity:1;paint-order:markers fill stroke"
         d="m 365.71693,559.051 c 3.12405,-3.0512 1.18019,-5.29498 -1.81869,-7.37067 -0.13393,1.31845 -0.82743,2.62927 -0.68108,4.10136 0.14064,1.41422 1.51495,2.23045 2.49977,3.26931 z"
         id="path638"
         sodipodi:nodetypes="ccsc" /><path
         style="fill:#218942;fill-opacity:1;stroke:none;stroke-width:0.594043;stroke-linecap:round;stroke-linejoin:round;stroke-miterlimit:0;stroke-dasharray:none;stroke-opacity:1;paint-order:markers fill stroke"
         d="m 363.02218,542.06823 c 1.66741,-4.03599 -1.00383,-5.33122 -4.57829,-6.05588 0.39694,1.26439 0.27665,2.74247 0.99174,4.03751 0.687,1.24411 2.27183,1.45214 3.58655,2.01837 z"
         id="path639"
         sodipodi:nodetypes="ccsc" /><path
         id="path640"
         style="fill:#218942;fill-opacity:1;stroke:none;stroke-width:0.594043;stroke-linecap:round;stroke-linejoin:round;stroke-miterlimit:0;stroke-dasharray:none;stroke-opacity:1;paint-order:markers fill stroke"
         d="m 376.54273,531.65627 c 0.17042,1.31424 -0.20549,2.74824 0.27285,4.14812 0.45958,1.34483 1.98386,1.82646 3.17973,2.61324 0.12749,-0.20021 0.23864,-0.39394 0.33867,-0.58293 -0.17131,-0.4477 -0.34189,-0.8749 -0.55435,-1.24556 l -0.56475,-0.98571 1.13556,-0.0182 c 0.1264,-0.002 0.2522,-0.003 0.37678,-0.004 0.0655,-1.8e-4 0.13053,10e-4 0.19576,0.002 -0.11817,-1.8577 -2.00621,-2.99202 -4.38025,-3.92723 z m 5.48375,9.86573 c 0.68315,4.1039 2.05373,7.2006 6.72151,5.46123 -0.59292,-1.52145 -0.76679,-3.33596 -2.15763,-4.1689 -1.44776,-0.867 -3.13833,-0.78924 -4.56388,-1.29233 z" /><path
         style="fill:#218942;fill-opacity:1;stroke:none;stroke-width:0.594043;stroke-linecap:round;stroke-linejoin:round;stroke-miterlimit:0;stroke-dasharray:none;stroke-opacity:1;paint-order:markers fill stroke"
         d="m 390.65616,531.65015 c 4.10372,-1.493 3.257,-4.33838 1.37972,-7.46531 -0.66525,1.14617 -1.83724,2.05482 -2.31042,3.45645 -0.45454,1.34654 0.46139,2.65651 0.9307,4.00886 z"
         id="path641"
         sodipodi:nodetypes="ccsc" /><path
         id="path642"
         style="fill:#218942;fill-opacity:1;stroke:none;stroke-width:0.594043;stroke-linecap:round;stroke-linejoin:round;stroke-miterlimit:0;stroke-dasharray:none;stroke-opacity:1;paint-order:markers fill stroke"
         d="m 412.8493,529.95771 c -1.15995,0.64092 -2.63262,0.81686 -3.7592,1.77566 -1.08227,0.92113 -0.96997,2.51566 -1.26288,3.91683 1.21237,0.23465 2.14071,0.17298 2.84885,-0.11866 0.40324,-0.71097 0.9625,-1.28538 1.6388,-1.75227 0.41702,-1.0248 0.53527,-2.36061 0.53443,-3.82156 z" /><path
         style="fill:#218942;fill-opacity:1;stroke:none;stroke-width:0.594043;stroke-linecap:round;stroke-linejoin:round;stroke-miterlimit:0;stroke-dasharray:none;stroke-opacity:1;paint-order:markers fill stroke"
         d="m 415.02824,546.99349 c 4.09765,1.5096 5.28827,-1.20988 5.87373,-4.80976 -1.24804,0.44569 -2.72967,0.38283 -3.996,1.14761 -1.21653,0.73476 -1.36291,2.32646 -1.87773,3.66215 z"
         id="path643"
         sodipodi:nodetypes="ccsc" /><path
         style="fill:#218942;fill-opacity:1;stroke:none;stroke-width:0.594043;stroke-linecap:round;stroke-linejoin:round;stroke-miterlimit:0;stroke-dasharray:none;stroke-opacity:1;paint-order:markers fill stroke"
         d="m 421.18831,553.38752 c 3.30432,2.85501 5.37578,0.72846 7.19059,-2.43514 -1.32505,-0.022 -2.6898,-0.60224 -4.14425,-0.33199 -1.39728,0.25966 -2.09442,1.69804 -3.04634,2.76713 z"
         id="path644"
         sodipodi:nodetypes="ccsc" /><path
         style="fill:#218942;fill-opacity:1;stroke:none;stroke-width:0.594043;stroke-linecap:round;stroke-linejoin:round;stroke-miterlimit:0;stroke-dasharray:none;stroke-opacity:1;paint-order:markers fill stroke"
         d="m 429.98086,554.12388 c 3.72336,2.2817 5.42277,-0.15247 6.70083,-3.56839 -1.3111,0.19307 -2.75184,-0.1583 -4.14327,0.3441 -1.33671,0.4827 -1.79151,2.01505 -2.55756,3.22429 z"
         id="path645"
         sodipodi:nodetypes="ccsc" /><path
         style="fill:#218942;fill-opacity:1;stroke:none;stroke-width:0.594043;stroke-linecap:round;stroke-linejoin:round;stroke-miterlimit:0;stroke-dasharray:none;stroke-opacity:1;paint-order:markers fill stroke"
         d="m 429.11684,574.52024 c 0.27585,4.35814 3.24452,4.34771 6.77379,3.42784 -0.91221,-0.96132 -1.4537,-2.34189 -2.66514,-3.19094 -1.16385,-0.81563 -2.67886,-0.30603 -4.10865,-0.2369 z"
         id="path646"
         sodipodi:nodetypes="ccsc" /><path
         style="fill:#218942;fill-opacity:1;stroke:none;stroke-width:0.594043;stroke-linecap:round;stroke-linejoin:round;stroke-miterlimit:0;stroke-dasharray:none;stroke-opacity:1;paint-order:markers fill stroke"
         d="m 417.96344,583.74685 c -0.72112,4.30692 2.17235,4.97097 5.81831,4.87665 -0.67005,-1.14337 -0.88386,-2.61084 -1.87082,-3.71283 -0.9482,-1.05863 -2.53935,-0.90642 -3.94749,-1.16382 z"
         id="path647"
         sodipodi:nodetypes="ccsc" /><path
         style="fill:#218942;fill-opacity:1;stroke:none;stroke-width:0.707792;stroke-linecap:round;stroke-linejoin:round;stroke-miterlimit:0;stroke-dasharray:none;stroke-opacity:1;paint-order:markers fill stroke"
         d="m 409.49737,574.35056 c -0.31983,5.19322 3.19136,5.62089 7.50011,5.05648 -0.93596,-1.2717 -1.3715,-2.98411 -2.67785,-4.16743 -1.25505,-1.13677 -3.12167,-0.75886 -4.82226,-0.88905 z"
         id="path648"
         sodipodi:nodetypes="ccsc" /><path
         style="fill:#218942;fill-opacity:1;stroke:none;stroke-width:0.651088;stroke-linecap:round;stroke-linejoin:round;stroke-miterlimit:0;stroke-dasharray:none;stroke-opacity:1;paint-order:markers fill stroke"
         d="m 402.74513,582.80972 c 4.53285,1.53659 5.75948,-1.47703 6.29786,-5.43801 -1.35467,0.52406 -2.97983,0.4976 -4.34538,1.37179 -1.31186,0.83987 -1.42667,2.58801 -1.95248,4.06622 z"
         id="path649"
         sodipodi:nodetypes="ccsc" /><path
         style="fill:#218942;fill-opacity:1;stroke:none;stroke-width:0.621455;stroke-linecap:round;stroke-linejoin:round;stroke-miterlimit:0;stroke-dasharray:none;stroke-opacity:1;paint-order:markers fill stroke"
         d="m 395.32608,579.69004 c 4.31613,-1.497 3.4754,-4.48663 1.56108,-7.78711 -0.71396,1.18841 -1.95424,2.12038 -2.47133,3.57904 -0.49673,1.40134 0.44069,2.78606 0.91025,4.20807 z"
         id="path650"
         sodipodi:nodetypes="ccsc" /><path
         style="fill:#218942;fill-opacity:1;stroke:none;stroke-width:0.824995;stroke-linecap:round;stroke-linejoin:round;stroke-miterlimit:0;stroke-dasharray:none;stroke-opacity:1;paint-order:markers fill stroke"
         d="m 390.92905,544.71131 c 5.7874,-1.81258 4.79221,-5.81341 2.38497,-10.26993 -0.99522,1.54817 -2.67848,2.73486 -3.42334,4.64956 -0.71557,1.83945 0.47257,3.71459 1.03837,5.62037 z"
         id="path651"
         sodipodi:nodetypes="ccsc" /><path
         style="fill:#218942;fill-opacity:1;stroke:none;stroke-width:0.677635;stroke-linecap:round;stroke-linejoin:round;stroke-miterlimit:0;stroke-dasharray:none;stroke-opacity:1;paint-order:markers fill stroke"
         d="m 395.61234,548.76252 c 4.6678,1.73937 6.03751,-1.35759 6.72066,-5.4615 -1.42554,0.50309 -3.11539,0.42506 -4.56314,1.29206 -1.39084,0.83294 -1.56459,2.648 -2.15752,4.16944 z"
         id="path652"
         sodipodi:nodetypes="ccsc" /><path
         style="fill:#218942;fill-opacity:1;stroke:none;stroke-width:0.594043;stroke-linecap:round;stroke-linejoin:round;stroke-miterlimit:0;stroke-dasharray:none;stroke-opacity:1;paint-order:markers fill stroke"
         d="m 394.19682,572.7578 c -4.24892,-1.00805 -3.73719,-3.9323 -2.23439,-7.25548 0.79342,1.06149 2.06269,1.8284 2.6949,3.16585 0.60732,1.2849 -0.15086,2.69205 -0.46051,4.08963 z"
         id="path653"
         sodipodi:nodetypes="ccsc" /><path
         style="fill:#218942;fill-opacity:1;stroke:none;stroke-width:0.594043;stroke-linecap:round;stroke-linejoin:round;stroke-miterlimit:0;stroke-dasharray:none;stroke-opacity:1;paint-order:markers fill stroke"
         d="m 390.53829,576.41426 c -4.24892,-1.00805 -3.73719,-3.9323 -2.23439,-7.25547 0.79342,1.06148 2.06269,1.82839 2.6949,3.16584 0.60732,1.2849 -0.15086,2.69206 -0.46051,4.08963 z"
         id="path654"
         sodipodi:nodetypes="ccsc" /><path
         style="fill:#218942;fill-opacity:1;stroke:none;stroke-width:0.594043;stroke-linecap:round;stroke-linejoin:round;stroke-miterlimit:0;stroke-dasharray:none;stroke-opacity:1;paint-order:markers fill stroke"
         d="m 394.31717,560.27124 c -4.24892,-1.00804 -3.73719,-3.9323 -2.23439,-7.25547 0.79342,1.06148 2.06269,1.82839 2.6949,3.16584 0.60733,1.2849 -0.15086,2.69206 -0.46051,4.08963 z"
         id="path655"
         sodipodi:nodetypes="ccsc" /></g></g></svg>
